<svg version="1.1" viewBox="0.0 0.0 600.0 371.0" fill="none" stroke="none" stroke-linecap="square" stroke-miterlimit="10" width="600" height="371" xmlns:xlink="http://www.w3.org/1999/xlink" xmlns="http://www.w3.org/2000/svg"><path fill="#ffffff" d="M0 0L600.0 0L600.0 371.0L0 371.0L0 0Z" fill-rule="nonzero"/><path fill="#ff0000" d="M167.44794 136.14468C192.8451 86.29995 244.05795 54.916668 300.0 54.916668L300.0 203.68333Z" fill-rule="nonzero"/><path fill="#4285f4" d="M153.0649 180.4111C155.50699 164.99237 160.36072 150.05411 167.44794 136.14468L300.0 203.68333Z" fill-rule="nonzero"/><path fill="#42d400" d="M300.0 54.916668C362.30347 54.916668 418.0073 93.74008 439.5716 152.19266C461.1359 210.64522 443.99216 276.34354 396.6162 316.8064C349.2403 357.26926 281.66898 363.92444 227.30945 333.48166C172.94992 303.03885 143.31848 241.94751 153.0649 180.4111L300.0 203.68333Z" fill-rule="nonzero"/><path fill="#1a1a1a" d="M19.471874 78.68112L19.471874 70.08737L20.628124 70.08737L25.14375 76.83737L25.14375 70.08737L26.2375 70.08737L26.2375 78.68112L25.065624 78.68112L20.55 71.93112L20.55 78.68112L19.471874 78.68112ZM32.596874 76.68112L33.690624 76.80612Q33.440624 77.75925 32.7375 78.2905Q32.034374 78.82175 30.95625 78.82175Q29.596874 78.82175 28.784374 77.978Q27.9875 77.13425 27.9875 75.61862Q27.9875 74.05612 28.8 73.19675Q29.6125 72.32175 30.89375 72.32175Q32.14375 72.32175 32.925 73.1655Q33.721874 74.00925 33.721874 75.55612Q33.721874 75.64987 33.721874 75.83737L29.08125 75.83737Q29.14375 76.86862 29.659374 77.4155Q30.175 77.94675 30.95625 77.94675Q31.534374 77.94675 31.940624 77.64987Q32.3625 77.33737 32.596874 76.68112ZM29.14375 74.978L32.6125 74.978Q32.55 74.18112 32.221874 73.7905Q31.70625 73.18112 30.909374 73.18112Q30.175 73.18112 29.675 73.6655Q29.190624 74.14987 29.14375 74.978ZM35.14375 79.19675L36.175 79.353Q36.2375 79.82175 36.534374 80.0405Q36.925 80.33737 37.596874 80.33737Q38.33125 80.33737 38.721874 80.0405Q39.128124 79.74362 39.26875 79.228Q39.3625 78.89987 39.346874 77.86862Q38.659374 78.68112 37.628124 78.68112Q36.346874 78.68112 35.64375 77.75925Q34.940624 76.82175 34.940624 75.5405Q34.940624 74.64987 35.253124 73.89987Q35.58125 73.13425 36.190624 72.728Q36.8 72.32175 37.628124 72.32175Q38.7375 72.32175 39.45625 73.21237L39.45625 72.46237L40.425 72.46237L40.425 77.83737Q40.425 79.2905 40.128124 79.89987Q39.83125 80.50925 39.190624 80.853Q38.55 81.21237 37.6125 81.21237Q36.503124 81.21237 35.815624 80.71237Q35.128124 80.21237 35.14375 79.19675ZM36.01875 75.46237Q36.01875 76.68112 36.503124 77.24362Q36.9875 77.80612 37.721874 77.80612Q38.45625 77.80612 38.940624 77.24362Q39.440624 76.68112 39.440624 75.49362Q39.440624 74.353 38.925 73.77487Q38.425 73.19675 37.70625 73.19675Q37.003124 73.19675 36.503124 73.77487Q36.01875 74.33737 36.01875 75.46237ZM46.409374 77.9155Q45.815624 78.4155 45.26875 78.61862Q44.7375 78.82175 44.1125 78.82175Q43.08125 78.82175 42.534374 78.32175Q41.9875 77.82175 41.9875 77.0405Q41.9875 76.58737 42.190624 76.21237Q42.39375 75.82175 42.7375 75.603Q43.08125 75.36862 43.503124 75.25925Q43.8 75.1655 44.440624 75.08737Q45.70625 74.94675 46.315624 74.728Q46.315624 74.50925 46.315624 74.46237Q46.315624 73.80612 46.01875 73.5405Q45.6125 73.19675 44.815624 73.19675Q44.08125 73.19675 43.721874 73.46237Q43.3625 73.71237 43.190624 74.36862L42.159374 74.228Q42.3 73.57175 42.628124 73.1655Q42.95625 72.75925 43.565624 72.5405Q44.175 72.32175 44.971874 72.32175Q45.76875 72.32175 46.26875 72.50925Q46.76875 72.69675 47.003124 72.978Q47.2375 73.25925 47.33125 73.69675Q47.378124 73.96237 47.378124 74.6655L47.378124 76.07175Q47.378124 77.5405 47.440624 77.93112Q47.51875 78.32175 47.721874 78.68112L46.6125 78.68112Q46.45625 78.353 46.409374 77.9155ZM46.315624 75.55612Q45.7375 75.7905 44.596874 75.96237Q43.940624 76.05612 43.675 76.18112Q43.409374 76.2905 43.253124 76.50925Q43.1125 76.728 43.1125 77.00925Q43.1125 77.43112 43.425 77.71237Q43.753124 77.99362 44.3625 77.99362Q44.971874 77.99362 45.440624 77.728Q45.925 77.46237 46.14375 76.99362Q46.315624 76.63425 46.315624 75.94675L46.315624 75.55612ZM51.64375 77.74362L51.8 78.6655Q51.346874 78.75925 51.003124 78.75925Q50.425 78.75925 50.1125 78.58737Q49.8 78.39987 49.659374 78.103Q49.534374 77.80612 49.534374 76.853L49.534374 73.27487L48.76875 73.27487L48.76875 72.46237L49.534374 72.46237L49.534374 70.9155L50.58125 70.2905L50.58125 72.46237L51.64375 72.46237L51.64375 73.27487L50.58125 73.27487L50.58125 76.9155Q50.58125 77.36862 50.628124 77.49362Q50.690624 77.61862 50.815624 77.69675Q50.940624 77.77487 51.175 77.77487Q51.3625 77.77487 51.64375 77.74362ZM52.346874 71.30612L52.346874 70.08737L53.409374 70.08737L53.409374 71.30612L52.346874 71.30612ZM52.346874 78.68112L52.346874 72.46237L53.409374 72.46237L53.409374 78.68112L52.346874 78.68112ZM57.065624 78.68112L54.70625 72.46237L55.815624 72.46237L57.159374 76.18112Q57.3625 76.7905 57.55 77.43112Q57.690624 76.94675 57.940624 76.25925L59.33125 72.46237L60.409374 72.46237L58.05 78.68112L57.065624 78.68112ZM64.59688 76.68112L65.69063 76.80612Q65.44063 77.75925 64.7375 78.2905Q64.03438 78.82175 62.95625 78.82175Q61.596874 78.82175 60.784374 77.978Q59.9875 77.13425 59.9875 75.61862Q59.9875 74.05612 60.8 73.19675Q61.6125 72.32175 62.89375 72.32175Q64.14375 72.32175 64.925 73.1655Q65.72188 74.00925 65.72188 75.55612Q65.72188 75.64987 65.72188 75.83737L61.08125 75.83737Q61.14375 76.86862 61.659374 77.4155Q62.175 77.94675 62.95625 77.94675Q63.534374 77.94675 63.940624 77.64987Q64.3625 77.33737 64.59688 76.68112ZM61.14375 74.978L64.6125 74.978Q64.55 74.18112 64.22188 73.7905Q63.70625 73.18112 62.909374 73.18112Q62.175 73.18112 61.675 73.6655Q61.190624 74.14987 61.14375 74.978Z" fill-rule="nonzero"/><path fill="#9e9e9e" d="M23.01875 95.68112L21.971874 95.68112L21.971874 88.96237Q21.58125 89.32175 20.95625 89.69675Q20.346874 90.05612 19.8625 90.228L19.8625 89.21237Q20.7375 88.7905 21.39375 88.21237Q22.065624 87.61862 22.346874 87.05612L23.01875 87.05612L23.01875 95.68112ZM26.1125 88.21237L26.1125 87.19675L31.675 87.19675L31.675 88.02487Q30.8625 88.89987 30.05 90.353Q29.253124 91.7905 28.815624 93.32175Q28.4875 94.39987 28.409374 95.68112L27.315624 95.68112Q27.33125 94.6655 27.70625 93.228Q28.096874 91.7905 28.8 90.46237Q29.51875 89.13425 30.33125 88.21237L26.1125 88.21237ZM33.64375 95.68112L33.64375 94.478L34.846874 94.478L34.846874 95.68112L33.64375 95.68112ZM36.05 93.43112L37.159374 93.33737Q37.284374 94.14987 37.721874 94.55612Q38.175 94.96237 38.815624 94.96237Q39.565624 94.96237 40.096874 94.38425Q40.628124 93.80612 40.628124 92.86862Q40.628124 91.96237 40.1125 91.44675Q39.6125 90.9155 38.784374 90.9155Q38.284374 90.9155 37.8625 91.14987Q37.45625 91.38425 37.221874 91.74362L36.2375 91.61862L37.065624 87.21237L41.346874 87.21237L41.346874 88.21237L37.909374 88.21237L37.45625 90.52487Q38.221874 89.978 39.065624 89.978Q40.190624 89.978 40.95625 90.75925Q41.7375 91.5405 41.7375 92.77487Q41.7375 93.93112 41.065624 94.7905Q40.2375 95.82175 38.815624 95.82175Q37.64375 95.82175 36.89375 95.1655Q36.159374 94.50925 36.05 93.43112ZM43.253124 89.14987Q43.253124 88.228 43.70625 87.58737Q44.175 86.94675 45.05 86.94675Q45.8625 86.94675 46.39375 87.52487Q46.925 88.103 46.925 89.21237Q46.925 90.30612 46.378124 90.89987Q45.846874 91.478 45.065624 91.478Q44.284374 91.478 43.76875 90.89987Q43.253124 90.32175 43.253124 89.14987ZM45.08125 87.6655Q44.690624 87.6655 44.425 88.00925Q44.175 88.353 44.175 89.25925Q44.175 90.08737 44.425 90.43112Q44.690624 90.75925 45.08125 90.75925Q45.4875 90.75925 45.7375 90.4155Q46.003124 90.07175 46.003124 89.18112Q46.003124 88.33737 45.7375 88.00925Q45.471874 87.6655 45.08125 87.6655ZM45.08125 95.99362L49.784374 86.94675L50.64375 86.94675L45.95625 95.99362L45.08125 95.99362ZM48.8 93.6655Q48.8 92.74362 49.253124 92.103Q49.721874 91.46237 50.6125 91.46237Q51.425 91.46237 51.95625 92.0405Q52.4875 92.603 52.4875 93.728Q52.4875 94.82175 51.940624 95.4155Q51.409374 95.99362 50.6125 95.99362Q49.846874 95.99362 49.315624 95.4155Q48.8 94.83737 48.8 93.6655ZM50.64375 92.18112Q50.2375 92.18112 49.971874 92.52487Q49.721874 92.86862 49.721874 93.77487Q49.721874 94.58737 49.9875 94.93112Q50.253124 95.27487 50.64375 95.27487Q51.034374 95.27487 51.3 94.93112Q51.565624 94.58737 51.565624 93.68112Q51.565624 92.853 51.3 92.52487Q51.034374 92.18112 50.64375 92.18112Z" fill-rule="nonzero"/><path stroke="#757575" stroke-width="1.0" stroke-linecap="butt" d="M18.55 83.18112L145.23334 83.18112L226.15614 83.18112" fill-rule="nonzero"/><path fill="#9e9e9e" d="M228.15614 83.18112C228.15614 82.07655 227.26071 81.18112 226.15614 81.18112C225.05157 81.18112 224.15614 82.07655 224.15614 83.18112C224.15614 84.28569 225.05157 85.18112 226.15614 85.18112C227.26071 85.18112 228.15614 84.28569 228.15614 83.18112" fill-rule="nonzero"/><path fill="#1a1a1a" d="M19.471874 155.51048L19.471874 146.91673L20.628124 146.91673L25.14375 153.66673L25.14375 146.91673L26.2375 146.91673L26.2375 155.51048L25.065624 155.51048L20.55 148.76048L20.55 155.51048L19.471874 155.51048ZM32.596874 153.51048L33.690624 153.63548Q33.440624 154.58861 32.7375 155.11986Q32.034374 155.65111 30.95625 155.65111Q29.596874 155.65111 28.784374 154.80736Q27.9875 153.96361 27.9875 152.44798Q27.9875 150.88548 28.8 150.02611Q29.6125 149.15111 30.89375 149.15111Q32.14375 149.15111 32.925 149.99486Q33.721874 150.83861 33.721874 152.38548Q33.721874 152.47923 33.721874 152.66673L29.08125 152.66673Q29.14375 153.69798 29.659374 154.24486Q30.175 154.77611 30.95625 154.77611Q31.534374 154.77611 31.940624 154.47923Q32.3625 154.16673 32.596874 153.51048ZM29.14375 151.80736L32.6125 151.80736Q32.55 151.01048 32.221874 150.61986Q31.70625 150.01048 30.909374 150.01048Q30.175 150.01048 29.675 150.49486Q29.190624 150.97923 29.14375 151.80736ZM39.425 155.51048L39.425 154.58861Q38.690624 155.65111 37.440624 155.65111Q36.89375 155.65111 36.409374 155.44798Q35.940624 155.22923 35.70625 154.91673Q35.471874 154.58861 35.378124 154.11986Q35.315624 153.82298 35.315624 153.13548L35.315624 149.29173L36.378124 149.29173L36.378124 152.74486Q36.378124 153.55736 36.440624 153.85423Q36.534374 154.26048 36.846874 154.51048Q37.175 154.74486 37.659374 154.74486Q38.128124 154.74486 38.534374 154.51048Q38.95625 154.26048 39.128124 153.83861Q39.315624 153.41673 39.315624 152.61986L39.315624 149.29173L40.3625 149.29173L40.3625 155.51048L39.425 155.51048ZM44.64375 154.57298L44.8 155.49486Q44.346874 155.58861 44.003124 155.58861Q43.425 155.58861 43.1125 155.41673Q42.8 155.22923 42.659374 154.93236Q42.534374 154.63548 42.534374 153.68236L42.534374 150.10423L41.76875 150.10423L41.76875 149.29173L42.534374 149.29173L42.534374 147.74486L43.58125 147.11986L43.58125 149.29173L44.64375 149.29173L44.64375 150.10423L43.58125 150.10423L43.58125 153.74486Q43.58125 154.19798 43.628124 154.32298Q43.690624 154.44798 43.815624 154.52611Q43.940624 154.60423 44.175 154.60423Q44.3625 154.60423 44.64375 154.57298ZM45.33125 155.51048L45.33125 149.29173L46.284374 149.29173L46.284374 150.22923Q46.64375 149.57298 46.940624 149.36986Q47.253124 149.15111 47.628124 149.15111Q48.159374 149.15111 48.70625 149.47923L48.346874 150.46361Q47.95625 150.22923 47.58125 150.22923Q47.221874 150.22923 46.940624 150.44798Q46.675 150.65111 46.565624 151.02611Q46.378124 151.58861 46.378124 152.24486L46.378124 155.51048L45.33125 155.51048ZM53.409374 154.74486Q52.815624 155.24486 52.26875 155.44798Q51.7375 155.65111 51.1125 155.65111Q50.08125 155.65111 49.534374 155.15111Q48.9875 154.65111 48.9875 153.86986Q48.9875 153.41673 49.190624 153.04173Q49.39375 152.65111 49.7375 152.43236Q50.08125 152.19798 50.503124 152.08861Q50.8 151.99486 51.440624 151.91673Q52.70625 151.77611 53.315624 151.55736Q53.315624 151.33861 53.315624 151.29173Q53.315624 150.63548 53.01875 150.36986Q52.6125 150.02611 51.815624 150.02611Q51.08125 150.02611 50.721874 150.29173Q50.3625 150.54173 50.190624 151.19798L49.159374 151.05736Q49.3 150.40111 49.628124 149.99486Q49.95625 149.58861 50.565624 149.36986Q51.175 149.15111 51.971874 149.15111Q52.76875 149.15111 53.26875 149.33861Q53.76875 149.52611 54.003124 149.80736Q54.2375 150.08861 54.33125 150.52611Q54.378124 150.79173 54.378124 151.49486L54.378124 152.90111Q54.378124 154.36986 54.440624 154.76048Q54.51875 155.15111 54.721874 155.51048L53.6125 155.51048Q53.45625 155.18236 53.409374 154.74486ZM53.315624 152.38548Q52.7375 152.61986 51.596874 152.79173Q50.940624 152.88548 50.675 153.01048Q50.409374 153.11986 50.253124 153.33861Q50.1125 153.55736 50.1125 153.83861Q50.1125 154.26048 50.425 154.54173Q50.753124 154.82298 51.3625 154.82298Q51.971874 154.82298 52.440624 154.55736Q52.925 154.29173 53.14375 153.82298Q53.315624 153.46361 53.315624 152.77611L53.315624 152.38548ZM56.315624 155.51048L56.315624 146.91673L57.378124 146.91673L57.378124 155.51048L56.315624 155.51048Z" fill-rule="nonzero"/><path fill="#9e9e9e" d="M19.05 170.26048L20.159374 170.16673Q20.284374 170.97923 20.721874 171.38548Q21.175 171.79173 21.815624 171.79173Q22.565624 171.79173 23.096874 171.21361Q23.628124 170.63548 23.628124 169.69798Q23.628124 168.79173 23.1125 168.27611Q22.6125 167.74486 21.784374 167.74486Q21.284374 167.74486 20.8625 167.97923Q20.45625 168.21361 20.221874 168.57298L19.2375 168.44798L20.065624 164.04173L24.346874 164.04173L24.346874 165.04173L20.909374 165.04173L20.45625 167.35423Q21.221874 166.80736 22.065624 166.80736Q23.190624 166.80736 23.95625 167.58861Q24.7375 168.36986 24.7375 169.60423Q24.7375 170.76048 24.065624 171.61986Q23.2375 172.65111 21.815624 172.65111Q20.64375 172.65111 19.89375 171.99486Q19.159374 171.33861 19.05 170.26048ZM26.64375 172.51048L26.64375 171.30736L27.846874 171.30736L27.846874 172.51048L26.64375 172.51048ZM29.05 168.27611Q29.05 166.74486 29.3625 165.82298Q29.675 164.88548 30.284374 164.38548Q30.909374 163.88548 31.846874 163.88548Q32.534374 163.88548 33.05 164.16673Q33.58125 164.44798 33.925 164.97923Q34.26875 165.49486 34.45625 166.24486Q34.64375 166.99486 34.64375 168.27611Q34.64375 169.79173 34.33125 170.71361Q34.034374 171.63548 33.409374 172.15111Q32.8 172.65111 31.846874 172.65111Q30.6125 172.65111 29.89375 171.76048Q29.05 170.69798 29.05 168.27611ZM30.128124 168.27611Q30.128124 170.38548 30.628124 171.08861Q31.128124 171.79173 31.846874 171.79173Q32.58125 171.79173 33.065624 171.08861Q33.565624 170.38548 33.565624 168.27611Q33.565624 166.15111 33.065624 165.46361Q32.58125 164.76048 31.83125 164.76048Q31.1125 164.76048 30.675 165.36986Q30.128124 166.15111 30.128124 168.27611ZM36.253124 165.97923Q36.253124 165.05736 36.70625 164.41673Q37.175 163.77611 38.05 163.77611Q38.8625 163.77611 39.39375 164.35423Q39.925 164.93236 39.925 166.04173Q39.925 167.13548 39.378124 167.72923Q38.846874 168.30736 38.065624 168.30736Q37.284374 168.30736 36.76875 167.72923Q36.253124 167.15111 36.253124 165.97923ZM38.08125 164.49486Q37.690624 164.49486 37.425 164.83861Q37.175 165.18236 37.175 166.08861Q37.175 166.91673 37.425 167.26048Q37.690624 167.58861 38.08125 167.58861Q38.4875 167.58861 38.7375 167.24486Q39.003124 166.90111 39.003124 166.01048Q39.003124 165.16673 38.7375 164.83861Q38.471874 164.49486 38.08125 164.49486ZM38.08125 172.82298L42.784374 163.77611L43.64375 163.77611L38.95625 172.82298L38.08125 172.82298ZM41.8 170.49486Q41.8 169.57298 42.253124 168.93236Q42.721874 168.29173 43.6125 168.29173Q44.425 168.29173 44.95625 168.86986Q45.4875 169.43236 45.4875 170.55736Q45.4875 171.65111 44.940624 172.24486Q44.409374 172.82298 43.6125 172.82298Q42.846874 172.82298 42.315624 172.24486Q41.8 171.66673 41.8 170.49486ZM43.64375 169.01048Q43.2375 169.01048 42.971874 169.35423Q42.721874 169.69798 42.721874 170.60423Q42.721874 171.41673 42.9875 171.76048Q43.253124 172.10423 43.64375 172.10423Q44.034374 172.10423 44.3 171.76048Q44.565624 171.41673 44.565624 170.51048Q44.565624 169.68236 44.3 169.35423Q44.034374 169.01048 43.64375 169.01048Z" fill-rule="nonzero"/><path stroke="#757575" stroke-width="1.0" stroke-linecap="butt" d="M18.55 160.01048L145.23334 160.01048L165.58876 160.01048" fill-rule="nonzero"/><path fill="#9e9e9e" d="M167.58876 160.01048C167.58876 158.90591 166.69334 158.01048 165.58876 158.01048C164.48419 158.01048 163.58876 158.90591 163.58876 160.01048C163.58876 161.11505 164.48419 162.01048 165.58876 162.01048C166.69334 162.01048 167.58876 161.11505 167.58876 160.01048" fill-rule="nonzero"/><path fill="#1a1a1a" d="M539.3719 306.65024L539.3719 298.0565L542.6219 298.0565Q543.46564 298.0565 543.91876 298.1346Q544.5594 298.244 544.98126 298.54086Q545.41876 298.83774 545.66876 299.369Q545.9344 299.90024 545.9344 300.54086Q545.9344 301.6346 545.23126 302.40024Q544.54376 303.15024 542.71564 303.15024L540.5125 303.15024L540.5125 306.65024L539.3719 306.65024ZM540.5125 302.15024L542.73126 302.15024Q543.84064 302.15024 544.29376 301.744Q544.7625 301.3221 544.7625 300.5721Q544.7625 300.04086 544.48126 299.66586Q544.21564 299.27524 543.77814 299.15024Q543.48126 299.0721 542.71564 299.0721L540.5125 299.0721L540.5125 302.15024ZM546.85626 303.54086Q546.85626 301.8065 547.8094 300.97836Q548.60626 300.29086 549.7625 300.29086Q551.04376 300.29086 551.85626 301.1346Q552.6844 301.96274 552.6844 303.4471Q552.6844 304.65024 552.325 305.33774Q551.96564 306.02524 551.2625 306.41586Q550.575 306.79086 549.7625 306.79086Q548.46564 306.79086 547.65314 305.96274Q546.85626 305.119 546.85626 303.54086ZM547.9344 303.54086Q547.9344 304.72836 548.45 305.3221Q548.98126 305.91586 549.7625 305.91586Q550.5594 305.91586 551.075 305.3221Q551.59064 304.72836 551.59064 303.5096Q551.59064 302.35336 551.0594 301.7596Q550.54376 301.16586 549.7625 301.16586Q548.98126 301.16586 548.45 301.7596Q547.9344 302.33774 547.9344 303.54086ZM553.825 304.79086L554.85626 304.6346Q554.95 305.2596 555.34064 305.58774Q555.7469 305.91586 556.48126 305.91586Q557.2 305.91586 557.54376 305.6346Q557.90314 305.33774 557.90314 304.9315Q557.90314 304.5721 557.59064 304.369Q557.3719 304.22836 556.5125 304.0096Q555.35626 303.71274 554.90314 303.5096Q554.46564 303.29086 554.23126 302.91586Q553.9969 302.54086 553.9969 302.0721Q553.9969 301.66586 554.1844 301.3065Q554.3719 300.9471 554.7 300.71274Q554.95 300.54086 555.3719 300.41586Q555.79376 300.29086 556.29376 300.29086Q557.0125 300.29086 557.5594 300.5096Q558.1219 300.71274 558.3875 301.0721Q558.65314 301.4315 558.7469 302.02524L557.71564 302.16586Q557.65314 301.6971 557.3094 301.4315Q556.98126 301.15024 556.35626 301.15024Q555.6375 301.15024 555.325 301.40024Q555.0125 301.6346 555.0125 301.96274Q555.0125 302.16586 555.1375 302.3221Q555.27814 302.494 555.54376 302.60336Q555.7 302.66586 556.48126 302.869Q557.60626 303.1815 558.04376 303.369Q558.48126 303.5565 558.73126 303.91586Q558.98126 304.27524 558.98126 304.8221Q558.98126 305.35336 558.66876 305.8221Q558.3719 306.27524 557.79376 306.54086Q557.21564 306.79086 556.48126 306.79086Q555.2625 306.79086 554.6219 306.29086Q553.9969 305.77524 553.825 304.79086ZM561.2469 299.27524L561.2469 298.0565L562.3094 298.0565L562.3094 299.27524L561.2469 299.27524ZM561.2469 306.65024L561.2469 300.4315L562.3094 300.4315L562.3094 306.65024L561.2469 306.65024ZM566.54376 305.71274L566.7 306.6346Q566.2469 306.72836 565.90314 306.72836Q565.325 306.72836 565.0125 306.5565Q564.7 306.369 564.5594 306.0721Q564.4344 305.77524 564.4344 304.8221L564.4344 301.244L563.66876 301.244L563.66876 300.4315L564.4344 300.4315L564.4344 298.8846L565.48126 298.2596L565.48126 300.4315L566.54376 300.4315L566.54376 301.244L565.48126 301.244L565.48126 304.8846Q565.48126 305.33774 565.52814 305.46274Q565.59064 305.58774 565.71564 305.66586Q565.84064 305.744 566.075 305.744Q566.2625 305.744 566.54376 305.71274ZM567.2469 299.27524L567.2469 298.0565L568.3094 298.0565L568.3094 299.27524L567.2469 299.27524ZM567.2469 306.65024L567.2469 300.4315L568.3094 300.4315L568.3094 306.65024L567.2469 306.65024ZM571.96564 306.65024L569.60626 300.4315L570.71564 300.4315L572.0594 304.15024Q572.2625 304.7596 572.45 305.40024Q572.59064 304.91586 572.84064 304.22836L574.23126 300.4315L575.3094 300.4315L572.95 306.65024L571.96564 306.65024ZM579.4969 304.65024L580.59064 304.77524Q580.34064 305.72836 579.6375 306.2596Q578.9344 306.79086 577.85626 306.79086Q576.4969 306.79086 575.6844 305.9471Q574.8875 305.10336 574.8875 303.58774Q574.8875 302.02524 575.7 301.16586Q576.5125 300.29086 577.79376 300.29086Q579.04376 300.29086 579.825 301.1346Q580.6219 301.97836 580.6219 303.52524Q580.6219 303.619 580.6219 303.8065L575.98126 303.8065Q576.04376 304.83774 576.5594 305.3846Q577.075 305.91586 577.85626 305.91586Q578.4344 305.91586 578.84064 305.619Q579.2625 305.3065 579.4969 304.65024ZM576.04376 302.9471L579.5125 302.9471Q579.45 302.15024 579.1219 301.7596Q578.60626 301.15024 577.8094 301.15024Q577.075 301.15024 576.575 301.6346Q576.09064 302.119 576.04376 302.9471Z" fill-rule="nonzero"/><path fill="#9e9e9e" d="M547.0125 316.1815L547.0125 315.16586L552.575 315.16586L552.575 315.994Q551.7625 316.869 550.95 318.3221Q550.15314 319.7596 549.71564 321.29086Q549.3875 322.369 549.3094 323.65024L548.21564 323.65024Q548.23126 322.6346 548.60626 321.1971Q548.9969 319.7596 549.7 318.4315Q550.41876 317.10336 551.23126 316.1815L547.0125 316.1815ZM554.0125 316.1815L554.0125 315.16586L559.575 315.16586L559.575 315.994Q558.7625 316.869 557.95 318.3221Q557.15314 319.7596 556.71564 321.29086Q556.3875 322.369 556.3094 323.65024L555.21564 323.65024Q555.23126 322.6346 555.60626 321.1971Q555.9969 319.7596 556.7 318.4315Q557.41876 317.10336 558.23126 316.1815L554.0125 316.1815ZM561.54376 323.65024L561.54376 322.4471L562.7469 322.4471L562.7469 323.65024L561.54376 323.65024ZM563.95 321.40024L565.0594 321.3065Q565.1844 322.119 565.6219 322.52524Q566.075 322.9315 566.71564 322.9315Q567.46564 322.9315 567.9969 322.35336Q568.52814 321.77524 568.52814 320.83774Q568.52814 319.9315 568.0125 319.41586Q567.5125 318.8846 566.6844 318.8846Q566.1844 318.8846 565.7625 319.119Q565.35626 319.35336 565.1219 319.71274L564.1375 319.58774L564.96564 315.1815L569.2469 315.1815L569.2469 316.1815L565.8094 316.1815L565.35626 318.494Q566.1219 317.9471 566.96564 317.9471Q568.09064 317.9471 568.85626 318.72836Q569.6375 319.5096 569.6375 320.744Q569.6375 321.90024 568.96564 322.7596Q568.1375 323.79086 566.71564 323.79086Q565.54376 323.79086 564.79376 323.1346Q564.0594 322.47836 563.95 321.40024ZM571.15314 317.119Q571.15314 316.1971 571.60626 315.5565Q572.075 314.91586 572.95 314.91586Q573.7625 314.91586 574.29376 315.494Q574.825 316.0721 574.825 317.1815Q574.825 318.27524 574.27814 318.869Q573.7469 319.4471 572.96564 319.4471Q572.1844 319.4471 571.66876 318.869Q571.15314 318.29086 571.15314 317.119ZM572.98126 315.6346Q572.59064 315.6346 572.325 315.97836Q572.075 316.3221 572.075 317.22836Q572.075 318.0565 572.325 318.40024Q572.59064 318.72836 572.98126 318.72836Q573.3875 318.72836 573.6375 318.3846Q573.90314 318.04086 573.90314 317.15024Q573.90314 316.3065 573.6375 315.97836Q573.3719 315.6346 572.98126 315.6346ZM572.98126 323.96274L577.6844 314.91586L578.54376 314.91586L573.85626 323.96274L572.98126 323.96274ZM576.7 321.6346Q576.7 320.71274 577.15314 320.0721Q577.6219 319.4315 578.5125 319.4315Q579.325 319.4315 579.85626 320.0096Q580.3875 320.5721 580.3875 321.6971Q580.3875 322.79086 579.84064 323.3846Q579.3094 323.96274 578.5125 323.96274Q577.7469 323.96274 577.21564 323.3846Q576.7 322.8065 576.7 321.6346ZM578.54376 320.15024Q578.1375 320.15024 577.8719 320.494Q577.6219 320.83774 577.6219 321.744Q577.6219 322.5565 577.8875 322.90024Q578.15314 323.244 578.54376 323.244Q578.9344 323.244 579.2 322.90024Q579.46564 322.5565 579.46564 321.65024Q579.46564 320.8221 579.2 320.494Q578.9344 320.15024 578.54376 320.15024Z" fill-rule="nonzero"/><path stroke="#757575" stroke-width="1.0" stroke-linecap="butt" d="M581.45 311.15024L454.76666 311.15024L391.7854 311.15024" fill-rule="nonzero"/><path fill="#9e9e9e" d="M393.7854 311.15024C393.7854 310.0457 392.88998 309.15024 391.7854 309.15024C390.68085 309.15024 389.7854 310.0457 389.7854 311.15024C389.7854 312.25482 390.68085 313.15024 391.7854 313.15024C392.88998 313.15024 393.7854 312.25482 393.7854 311.15024" fill-rule="nonzero"/><path fill="#757575" d="M20.01875 37.55L20.01875 23.2375L26.096874 23.2375Q28.39375 23.2375 29.425 23.628124Q30.471874 24.003124 31.096874 24.9875Q31.721874 25.971874 31.721874 27.253124Q31.721874 28.8625 30.76875 29.909374Q29.83125 30.95625 27.940624 31.2375Q28.878124 31.784374 29.4875 32.440624Q30.096874 33.08125 31.14375 34.753124L32.89375 37.55L29.425 37.55L27.346874 34.440624Q26.221874 32.76875 25.815624 32.33125Q25.409374 31.89375 24.940624 31.7375Q24.4875 31.565624 23.4875 31.565624L22.909374 31.565624L22.909374 37.55L20.01875 37.55ZM22.909374 29.284374L25.05 29.284374Q27.128124 29.284374 27.64375 29.1125Q28.159374 28.940624 28.45625 28.51875Q28.753124 28.08125 28.753124 27.425Q28.753124 26.70625 28.3625 26.26875Q27.971874 25.815624 27.26875 25.70625Q26.925 25.659374 25.159374 25.659374L22.909374 25.659374L22.909374 29.284374ZM39.9875 34.253124L42.721874 34.70625Q42.20625 36.20625 41.065624 37.003124Q39.925 37.784374 38.221874 37.784374Q35.503124 37.784374 34.20625 36.01875Q33.190624 34.596874 33.190624 32.440624Q33.190624 29.8625 34.534374 28.409374Q35.878124 26.940624 37.940624 26.940624Q40.253124 26.940624 41.58125 28.471874Q42.925 30.003124 42.878124 33.159374L36.003124 33.159374Q36.034374 34.378124 36.659374 35.065624Q37.3 35.7375 38.2375 35.7375Q38.89375 35.7375 39.33125 35.39375Q39.76875 35.034374 39.9875 34.253124ZM40.14375 31.471874Q40.1125 30.284374 39.51875 29.675Q38.940624 29.05 38.1125 29.05Q37.20625 29.05 36.628124 29.690624Q36.034374 30.346874 36.05 31.471874L40.14375 31.471874ZM47.83125 37.55L43.659374 27.175L46.534374 27.175L48.4875 32.471874L49.065624 34.2375Q49.284374 33.565624 49.346874 33.346874Q49.471874 32.909374 49.628124 32.471874L51.6125 27.175L54.425 27.175L50.315624 37.55L47.83125 37.55ZM55.9875 25.76875L55.9875 23.2375L58.7375 23.2375L58.7375 25.76875L55.9875 25.76875ZM55.9875 37.55L55.9875 27.175L58.7375 27.175L58.7375 37.55L55.9875 37.55ZM66.9875 34.253124L69.72188 34.70625Q69.20625 36.20625 68.06563 37.003124Q66.925 37.784374 65.22188 37.784374Q62.503124 37.784374 61.20625 36.01875Q60.190624 34.596874 60.190624 32.440624Q60.190624 29.8625 61.534374 28.409374Q62.878124 26.940624 64.94063 26.940624Q67.25313 26.940624 68.58125 28.471874Q69.925 30.003124 69.87813 33.159374L63.003124 33.159374Q63.034374 34.378124 63.659374 35.065624Q64.3 35.7375 65.2375 35.7375Q65.89375 35.7375 66.33125 35.39375Q66.76875 35.034374 66.9875 34.253124ZM67.14375 31.471874Q67.1125 30.284374 66.51875 29.675Q65.94063 29.05 65.1125 29.05Q64.20625 29.05 63.628124 29.690624Q63.034374 30.346874 63.05 31.471874L67.14375 31.471874ZM73.925 37.55L70.64375 27.175L73.3 27.175L75.25313 33.971874L77.03438 27.175L79.675 27.175L81.40938 33.971874L83.39375 27.175L86.09688 27.175L82.76875 37.55L80.12813 37.55L78.34688 30.878124L76.58125 37.55L73.925 37.55ZM86.01875 34.596874L88.76875 34.175Q88.95625 34.971874 89.4875 35.39375Q90.01875 35.8 90.9875 35.8Q92.05 35.8 92.59688 35.409374Q92.95625 35.14375 92.95625 34.675Q92.95625 34.3625 92.75313 34.159374Q92.55 33.971874 91.84688 33.8Q88.51875 33.065624 87.62813 32.45625Q86.39375 31.628124 86.39375 30.128124Q86.39375 28.784374 87.45625 27.8625Q88.53438 26.940624 90.76875 26.940624Q92.89375 26.940624 93.925 27.64375Q94.97188 28.33125 95.3625 29.690624L92.76875 30.159374Q92.59688 29.565624 92.12813 29.2375Q91.675 28.909374 90.81563 28.909374Q89.7375 28.909374 89.26875 29.221874Q88.95625 29.440624 88.95625 29.76875Q88.95625 30.065624 89.22188 30.26875Q89.59688 30.55 91.78438 31.05Q93.97188 31.55 94.84688 32.26875Q95.70625 33.003124 95.70625 34.3Q95.70625 35.7375 94.51875 36.76875Q93.33125 37.784374 90.9875 37.784374Q88.87813 37.784374 87.62813 36.925Q86.39375 36.065624 86.01875 34.596874ZM102.78438 27.175L104.31563 27.175L104.31563 26.39375Q104.31563 25.08125 104.58125 24.440624Q104.8625 23.8 105.6125 23.39375Q106.3625 22.9875 107.50313 22.9875Q108.675 22.9875 109.8 23.346874L109.425 25.253124Q108.76875 25.096874 108.15938 25.096874Q107.56563 25.096874 107.3 25.378124Q107.05 25.659374 107.05 26.440624L107.05 27.175L109.09688 27.175L109.09688 29.33125L107.05 29.33125L107.05 37.55L104.31563 37.55L104.31563 29.33125L102.78438 29.33125L102.78438 27.175ZM113.6125 37.55L110.8625 37.55L110.8625 27.175L113.425 27.175L113.425 28.659374Q114.06563 27.6125 114.58125 27.284374Q115.1125 26.940624 115.78438 26.940624Q116.72188 26.940624 117.58125 27.45625L116.7375 29.846874Q116.05 29.409374 115.45625 29.409374Q114.87813 29.409374 114.47188 29.721874Q114.06563 30.034374 113.83125 30.878124Q113.6125 31.70625 113.6125 34.346874L113.6125 37.55ZM118.34688 32.221874Q118.34688 30.846874 119.01875 29.565624Q119.70625 28.284374 120.94063 27.6125Q122.175 26.940624 123.69063 26.940624Q126.05 26.940624 127.55 28.471874Q129.05 30.003124 129.05 32.33125Q129.05 34.690624 127.53438 36.2375Q126.01875 37.784374 123.70625 37.784374Q122.28438 37.784374 120.9875 37.14375Q119.70625 36.4875 119.01875 35.253124Q118.34688 34.003124 118.34688 32.221874ZM121.15938 32.3625Q121.15938 33.909374 121.89375 34.7375Q122.62813 35.55 123.70625 35.55Q124.78438 35.55 125.50313 34.7375Q126.2375 33.909374 126.2375 32.346874Q126.2375 30.815624 125.50313 30.003124Q124.78438 29.175 123.70625 29.175Q122.62813 29.175 121.89375 30.003124Q121.15938 30.815624 121.15938 32.3625ZM130.78438 27.175L133.31563 27.175L133.31563 28.596874Q134.675 26.940624 136.55 26.940624Q137.53438 26.940624 138.26875 27.3625Q139.00313 27.76875 139.47188 28.596874Q140.15938 27.76875 140.94063 27.3625Q141.7375 26.940624 142.64375 26.940624Q143.78438 26.940624 144.56563 27.409374Q145.3625 27.878124 145.75313 28.76875Q146.03438 29.440624 146.03438 30.925L146.03438 37.55L143.28438 37.55L143.28438 31.628124Q143.28438 30.08125 143.00313 29.628124Q142.62813 29.05 141.83125 29.05Q141.25313 29.05 140.7375 29.409374Q140.2375 29.753124 140.01875 30.425Q139.8 31.096874 139.8 32.565624L139.8 37.55L137.05 37.55L137.05 31.8625Q137.05 30.346874 136.89375 29.909374Q136.75313 29.471874 136.44063 29.26875Q136.14375 29.05 135.6125 29.05Q134.9875 29.05 134.47188 29.39375Q133.97188 29.721874 133.7375 30.378124Q133.51875 31.01875 133.51875 32.503124L133.51875 37.55L130.78438 37.55L130.78438 27.175ZM153.26875 32.89375L156.08125 32.6125Q156.34688 34.034374 157.1125 34.70625Q157.89375 35.3625 159.20625 35.3625Q160.6125 35.3625 161.31563 34.76875Q162.01875 34.175 162.01875 33.39375Q162.01875 32.878124 161.72188 32.534374Q161.425 32.175 160.69063 31.909374Q160.175 31.721874 158.37813 31.284374Q156.05 30.70625 155.1125 29.8625Q153.78438 28.675 153.78438 26.9875Q153.78438 25.89375 154.40938 24.940624Q155.03438 23.9875 156.19063 23.4875Q157.3625 22.9875 159.01875 22.9875Q161.70625 22.9875 163.06563 24.175Q164.44063 25.346874 164.50313 27.33125L161.6125 27.45625Q161.425 26.346874 160.81563 25.8625Q160.20625 25.378124 158.9875 25.378124Q157.72188 25.378124 157.01875 25.89375Q156.55 26.2375 156.55 26.784374Q156.55 27.3 156.9875 27.659374Q157.53438 28.1125 159.64375 28.6125Q161.75313 29.1125 162.75313 29.64375Q163.76875 30.175 164.33125 31.096874Q164.90938 32.01875 164.90938 33.378124Q164.90938 34.6125 164.22188 35.690624Q163.55 36.753124 162.3 37.284374Q161.05 37.8 159.175 37.8Q156.47188 37.8 155.00313 36.55Q153.55 35.3 153.26875 32.89375ZM166.34688 32.221874Q166.34688 30.846874 167.01875 29.565624Q167.70625 28.284374 168.94063 27.6125Q170.175 26.940624 171.69063 26.940624Q174.05 26.940624 175.55 28.471874Q177.05 30.003124 177.05 32.33125Q177.05 34.690624 175.53438 36.2375Q174.01875 37.784374 171.70625 37.784374Q170.28438 37.784374 168.9875 37.14375Q167.70625 36.4875 167.01875 35.253124Q166.34688 34.003124 166.34688 32.221874ZM169.15938 32.3625Q169.15938 33.909374 169.89375 34.7375Q170.62813 35.55 171.70625 35.55Q172.78438 35.55 173.50313 34.7375Q174.2375 33.909374 174.2375 32.346874Q174.2375 30.815624 173.50313 30.003124Q172.78438 29.175 171.70625 29.175Q170.62813 29.175 169.89375 30.003124Q169.15938 30.815624 169.15938 32.3625ZM188.03438 30.2375L185.33125 30.7375Q185.19063 29.925 184.70625 29.51875Q184.22188 29.096874 183.45625 29.096874Q182.425 29.096874 181.81563 29.815624Q181.20625 30.51875 181.20625 32.175Q181.20625 34.01875 181.81563 34.784374Q182.44063 35.55 183.4875 35.55Q184.26875 35.55 184.76875 35.1125Q185.26875 34.659374 185.47188 33.58125L188.15938 34.034374Q187.75313 35.89375 186.55 36.846874Q185.3625 37.784374 183.3625 37.784374Q181.08125 37.784374 179.72188 36.346874Q178.37813 34.909374 178.37813 32.378124Q178.37813 29.8 179.7375 28.378124Q181.09688 26.940624 183.40938 26.940624Q185.3 26.940624 186.40938 27.76875Q187.53438 28.58125 188.03438 30.2375ZM189.9875 25.76875L189.9875 23.2375L192.7375 23.2375L192.7375 25.76875L189.9875 25.76875ZM189.9875 37.55L189.9875 27.175L192.7375 27.175L192.7375 37.55L189.9875 37.55ZM197.03438 30.346874L194.55 29.89375Q194.97188 28.39375 195.9875 27.675Q197.01875 26.940624 199.03438 26.940624Q200.87813 26.940624 201.76875 27.378124Q202.675 27.815624 203.03438 28.4875Q203.40938 29.14375 203.40938 30.940624L203.37813 34.14375Q203.37813 35.503124 203.50313 36.159374Q203.64375 36.8 204.00313 37.55L201.28438 37.55Q201.175 37.26875 201.01875 36.7375Q200.95625 36.4875 200.925 36.409374Q200.22188 37.096874 199.40938 37.440624Q198.6125 37.784374 197.70625 37.784374Q196.1125 37.784374 195.19063 36.925Q194.26875 36.05 194.26875 34.721874Q194.26875 33.83125 194.675 33.14375Q195.09688 32.45625 195.84688 32.096874Q196.6125 31.721874 198.05 31.45625Q199.97188 31.096874 200.70625 30.784374L200.70625 30.503124Q200.70625 29.721874 200.31563 29.39375Q199.925 29.05 198.84688 29.05Q198.1125 29.05 197.69063 29.33125Q197.28438 29.6125 197.03438 30.346874ZM200.70625 32.565624Q200.175 32.7375 199.03438 32.9875Q197.89375 33.2375 197.55 33.471874Q197.00313 33.846874 197.00313 34.440624Q197.00313 35.003124 197.425 35.425Q197.8625 35.846874 198.53438 35.846874Q199.26875 35.846874 199.94063 35.3625Q200.44063 34.9875 200.59688 34.45625Q200.70625 34.096874 200.70625 33.1125L200.70625 32.565624ZM205.9875 37.55L205.9875 23.2375L208.7375 23.2375L208.7375 37.55L205.9875 37.55ZM216.97188 37.55L216.97188 23.2375L221.3 23.2375L223.89375 33.003124L226.45625 23.2375L230.8 23.2375L230.8 37.55L228.1125 37.55L228.1125 26.284374L225.26875 37.55L222.4875 37.55L219.65938 26.284374L219.65938 37.55L216.97188 37.55ZM239.9875 34.253124L242.72188 34.70625Q242.20625 36.20625 241.06563 37.003124Q239.925 37.784374 238.22188 37.784374Q235.50313 37.784374 234.20625 36.01875Q233.19063 34.596874 233.19063 32.440624Q233.19063 29.8625 234.53438 28.409374Q235.87813 26.940624 237.94063 26.940624Q240.25313 26.940624 241.58125 28.471874Q242.925 30.003124 242.87813 33.159374L236.00313 33.159374Q236.03438 34.378124 236.65938 35.065624Q237.3 35.7375 238.2375 35.7375Q238.89375 35.7375 239.33125 35.39375Q239.76875 35.034374 239.9875 34.253124ZM240.14375 31.471874Q240.1125 30.284374 239.51875 29.675Q238.94063 29.05 238.1125 29.05Q237.20625 29.05 236.62813 29.690624Q236.03438 30.346874 236.05 31.471874L240.14375 31.471874ZM254.50313 37.55L251.95625 37.55L251.95625 36.01875Q251.31563 36.909374 250.44063 37.346874Q249.58125 37.784374 248.70625 37.784374Q246.925 37.784374 245.64375 36.346874Q244.37813 34.909374 244.37813 32.33125Q244.37813 29.690624 245.6125 28.315624Q246.84688 26.940624 248.75313 26.940624Q250.4875 26.940624 251.75313 28.39375L251.75313 23.2375L254.50313 23.2375L254.50313 37.55ZM247.175 32.14375Q247.175 33.8 247.62813 34.534374Q248.3 35.6125 249.4875 35.6125Q250.44063 35.6125 251.09688 34.815624Q251.76875 34.003124 251.76875 32.409374Q251.76875 30.6125 251.1125 29.83125Q250.47188 29.05 249.47188 29.05Q248.4875 29.05 247.83125 29.83125Q247.175 30.596874 247.175 32.14375ZM256.9875 25.76875L256.9875 23.2375L259.7375 23.2375L259.7375 25.76875L256.9875 25.76875ZM256.9875 37.55L256.9875 27.175L259.7375 27.175L259.7375 37.55L256.9875 37.55ZM264.03436 30.346874L261.55 29.89375Q261.97186 28.39375 262.9875 27.675Q264.01874 26.940624 266.03436 26.940624Q267.8781 26.940624 268.76874 27.378124Q269.675 27.815624 270.03436 28.4875Q270.40936 29.14375 270.40936 30.940624L270.3781 34.14375Q270.3781 35.503124 270.5031 36.159374Q270.64374 36.8 271.0031 37.55L268.28436 37.55Q268.175 37.26875 268.01874 36.7375Q267.95624 36.4875 267.925 36.409374Q267.22186 37.096874 266.40936 37.440624Q265.6125 37.784374 264.70624 37.784374Q263.1125 37.784374 262.1906 36.925Q261.26874 36.05 261.26874 34.721874Q261.26874 33.83125 261.675 33.14375Q262.09686 32.45625 262.84686 32.096874Q263.6125 31.721874 265.05 31.45625Q266.97186 31.096874 267.70624 30.784374L267.70624 30.503124Q267.70624 29.721874 267.3156 29.39375Q266.925 29.05 265.84686 29.05Q265.1125 29.05 264.6906 29.33125Q264.28436 29.6125 264.03436 30.346874ZM267.70624 32.565624Q267.175 32.7375 266.03436 32.9875Q264.89374 33.2375 264.55 33.471874Q264.0031 33.846874 264.0031 34.440624Q264.0031 35.003124 264.425 35.425Q264.8625 35.846874 265.53436 35.846874Q266.26874 35.846874 266.9406 35.3625Q267.4406 34.9875 267.59686 34.45625Q267.70624 34.096874 267.70624 33.1125L267.70624 32.565624Z" fill-rule="nonzero"/></svg>