<svg version="1.1" viewBox="0.0 0.0 600.0 371.0" fill="none" stroke="none" stroke-linecap="square" stroke-miterlimit="10" width="600" height="371" xmlns:xlink="http://www.w3.org/1999/xlink" xmlns="http://www.w3.org/2000/svg"><path fill="#ffffff" d="M0 0L600.0 0L600.0 371.0L0 371.0L0 0Z" fill-rule="nonzero"/><path fill="#ff0000" d="M152.59001 183.638C162.61694 109.901665 225.58504 54.916668 300.0 54.916668L300.0 203.68333Z" fill-rule="nonzero"/><path fill="#4285f4" d="M270.70322 349.53674C193.72012 334.07358 142.00986 261.44266 152.59001 183.638L300.0 203.68333Z" fill-rule="nonzero"/><path fill="#42d400" d="M300.0 54.916668C356.677 54.916668 408.4301 87.12128 433.4659 137.96902C458.5017 188.81676 452.47012 249.47269 417.9111 294.39438C383.35208 339.31604 326.27036 360.6982 270.70322 349.53674L300.0 203.68333Z" fill-rule="nonzero"/><path fill="#1a1a1a" d="M19.471874 92.729065L19.471874 84.135315L20.628124 84.135315L25.14375 90.885315L25.14375 84.135315L26.2375 84.135315L26.2375 92.729065L25.065624 92.729065L20.55 85.979065L20.55 92.729065L19.471874 92.729065ZM32.596874 90.729065L33.690624 90.854065Q33.440624 91.80719 32.7375 92.33844Q32.034374 92.86969 30.95625 92.86969Q29.596874 92.86969 28.784374 92.02594Q27.9875 91.18219 27.9875 89.666565Q27.9875 88.104065 28.8 87.24469Q29.6125 86.36969 30.89375 86.36969Q32.14375 86.36969 32.925 87.21344Q33.721874 88.05719 33.721874 89.604065Q33.721874 89.697815 33.721874 89.885315L29.08125 89.885315Q29.14375 90.916565 29.659374 91.46344Q30.175 91.99469 30.95625 91.99469Q31.534374 91.99469 31.940624 91.697815Q32.3625 91.385315 32.596874 90.729065ZM29.14375 89.02594L32.6125 89.02594Q32.55 88.229065 32.221874 87.83844Q31.70625 87.229065 30.909374 87.229065Q30.175 87.229065 29.675 87.71344Q29.190624 88.197815 29.14375 89.02594ZM35.14375 93.24469L36.175 93.40094Q36.2375 93.86969 36.534374 94.08844Q36.925 94.385315 37.596874 94.385315Q38.33125 94.385315 38.721874 94.08844Q39.128124 93.791565 39.26875 93.27594Q39.3625 92.947815 39.346874 91.916565Q38.659374 92.729065 37.628124 92.729065Q36.346874 92.729065 35.64375 91.80719Q34.940624 90.86969 34.940624 89.58844Q34.940624 88.697815 35.253124 87.947815Q35.58125 87.18219 36.190624 86.77594Q36.8 86.36969 37.628124 86.36969Q38.7375 86.36969 39.45625 87.260315L39.45625 86.510315L40.425 86.510315L40.425 91.885315Q40.425 93.33844 40.128124 93.947815Q39.83125 94.55719 39.190624 94.90094Q38.55 95.260315 37.6125 95.260315Q36.503124 95.260315 35.815624 94.760315Q35.128124 94.260315 35.14375 93.24469ZM36.01875 89.510315Q36.01875 90.729065 36.503124 91.291565Q36.9875 91.854065 37.721874 91.854065Q38.45625 91.854065 38.940624 91.291565Q39.440624 90.729065 39.440624 89.541565Q39.440624 88.40094 38.925 87.822815Q38.425 87.24469 37.70625 87.24469Q37.003124 87.24469 36.503124 87.822815Q36.01875 88.385315 36.01875 89.510315ZM46.409374 91.96344Q45.815624 92.46344 45.26875 92.666565Q44.7375 92.86969 44.1125 92.86969Q43.08125 92.86969 42.534374 92.36969Q41.9875 91.86969 41.9875 91.08844Q41.9875 90.635315 42.190624 90.260315Q42.39375 89.86969 42.7375 89.65094Q43.08125 89.416565 43.503124 89.30719Q43.8 89.21344 44.440624 89.135315Q45.70625 88.99469 46.315624 88.77594Q46.315624 88.55719 46.315624 88.510315Q46.315624 87.854065 46.01875 87.58844Q45.6125 87.24469 44.815624 87.24469Q44.08125 87.24469 43.721874 87.510315Q43.3625 87.760315 43.190624 88.416565L42.159374 88.27594Q42.3 87.61969 42.628124 87.21344Q42.95625 86.80719 43.565624 86.58844Q44.175 86.36969 44.971874 86.36969Q45.76875 86.36969 46.26875 86.55719Q46.76875 86.74469 47.003124 87.02594Q47.2375 87.30719 47.33125 87.74469Q47.378124 88.010315 47.378124 88.71344L47.378124 90.11969Q47.378124 91.58844 47.440624 91.979065Q47.51875 92.36969 47.721874 92.729065L46.6125 92.729065Q46.45625 92.40094 46.409374 91.96344ZM46.315624 89.604065Q45.7375 89.83844 44.596874 90.010315Q43.940624 90.104065 43.675 90.229065Q43.409374 90.33844 43.253124 90.55719Q43.1125 90.77594 43.1125 91.05719Q43.1125 91.479065 43.425 91.760315Q43.753124 92.041565 44.3625 92.041565Q44.971874 92.041565 45.440624 91.77594Q45.925 91.510315 46.14375 91.041565Q46.315624 90.68219 46.315624 89.99469L46.315624 89.604065ZM51.64375 91.791565L51.8 92.71344Q51.346874 92.80719 51.003124 92.80719Q50.425 92.80719 50.1125 92.635315Q49.8 92.447815 49.659374 92.15094Q49.534374 91.854065 49.534374 90.90094L49.534374 87.322815L48.76875 87.322815L48.76875 86.510315L49.534374 86.510315L49.534374 84.96344L50.58125 84.33844L50.58125 86.510315L51.64375 86.510315L51.64375 87.322815L50.58125 87.322815L50.58125 90.96344Q50.58125 91.416565 50.628124 91.541565Q50.690624 91.666565 50.815624 91.74469Q50.940624 91.822815 51.175 91.822815Q51.3625 91.822815 51.64375 91.791565ZM52.346874 85.354065L52.346874 84.135315L53.409374 84.135315L53.409374 85.354065L52.346874 85.354065ZM52.346874 92.729065L52.346874 86.510315L53.409374 86.510315L53.409374 92.729065L52.346874 92.729065ZM57.065624 92.729065L54.70625 86.510315L55.815624 86.510315L57.159374 90.229065Q57.3625 90.83844 57.55 91.479065Q57.690624 90.99469 57.940624 90.30719L59.33125 86.510315L60.409374 86.510315L58.05 92.729065L57.065624 92.729065ZM64.59688 90.729065L65.69063 90.854065Q65.44063 91.80719 64.7375 92.33844Q64.03438 92.86969 62.95625 92.86969Q61.596874 92.86969 60.784374 92.02594Q59.9875 91.18219 59.9875 89.666565Q59.9875 88.104065 60.8 87.24469Q61.6125 86.36969 62.89375 86.36969Q64.14375 86.36969 64.925 87.21344Q65.72188 88.05719 65.72188 89.604065Q65.72188 89.697815 65.72188 89.885315L61.08125 89.885315Q61.14375 90.916565 61.659374 91.46344Q62.175 91.99469 62.95625 91.99469Q63.534374 91.99469 63.940624 91.697815Q64.3625 91.385315 64.59688 90.729065ZM61.14375 89.02594L64.6125 89.02594Q64.55 88.229065 64.22188 87.83844Q63.70625 87.229065 62.909374 87.229065Q62.175 87.229065 61.675 87.71344Q61.190624 88.197815 61.14375 89.02594Z" fill-rule="nonzero"/><path fill="#9e9e9e" d="M24.596874 108.71344L24.596874 109.729065L18.909374 109.729065Q18.909374 109.354065 19.034374 108.99469Q19.253124 108.416565 19.721874 107.854065Q20.20625 107.291565 21.1125 106.55719Q22.51875 105.40094 23.003124 104.729065Q23.503124 104.05719 23.503124 103.46344Q23.503124 102.83844 23.05 102.416565Q22.596874 101.979065 21.878124 101.979065Q21.1125 101.979065 20.659374 102.43219Q20.20625 102.885315 20.190624 103.697815L19.1125 103.58844Q19.221874 102.36969 19.940624 101.74469Q20.675 101.104065 21.909374 101.104065Q23.14375 101.104065 23.8625 101.791565Q24.58125 102.479065 24.58125 103.49469Q24.58125 104.010315 24.3625 104.510315Q24.159374 104.99469 23.659374 105.55719Q23.175 106.104065 22.05 107.05719Q21.096874 107.854065 20.815624 108.15094Q20.55 108.43219 20.378124 108.71344L24.596874 108.71344ZM31.596874 108.71344L31.596874 109.729065L25.909374 109.729065Q25.909374 109.354065 26.034374 108.99469Q26.253124 108.416565 26.721874 107.854065Q27.20625 107.291565 28.1125 106.55719Q29.51875 105.40094 30.003124 104.729065Q30.503124 104.05719 30.503124 103.46344Q30.503124 102.83844 30.05 102.416565Q29.596874 101.979065 28.878124 101.979065Q28.1125 101.979065 27.659374 102.43219Q27.20625 102.885315 27.190624 103.697815L26.1125 103.58844Q26.221874 102.36969 26.940624 101.74469Q27.675 101.104065 28.909374 101.104065Q30.14375 101.104065 30.8625 101.791565Q31.58125 102.479065 31.58125 103.49469Q31.58125 104.010315 31.3625 104.510315Q31.159374 104.99469 30.659374 105.55719Q30.175 106.104065 29.05 107.05719Q28.096874 107.854065 27.815624 108.15094Q27.55 108.43219 27.378124 108.71344L31.596874 108.71344ZM33.64375 109.729065L33.64375 108.52594L34.846874 108.52594L34.846874 109.729065L33.64375 109.729065ZM37.675 105.072815Q37.01875 104.822815 36.690624 104.385315Q36.378124 103.93219 36.378124 103.322815Q36.378124 102.385315 37.05 101.74469Q37.7375 101.104065 38.846874 101.104065Q39.971874 101.104065 40.659374 101.760315Q41.346874 102.416565 41.346874 103.354065Q41.346874 103.947815 41.034374 104.385315Q40.721874 104.822815 40.08125 105.072815Q40.878124 105.322815 41.284374 105.90094Q41.690624 106.479065 41.690624 107.27594Q41.690624 108.36969 40.909374 109.11969Q40.14375 109.86969 38.8625 109.86969Q37.596874 109.86969 36.815624 109.11969Q36.034374 108.36969 36.034374 107.24469Q36.034374 106.40094 36.45625 105.83844Q36.89375 105.27594 37.675 105.072815ZM37.45625 103.27594Q37.45625 103.885315 37.846874 104.27594Q38.253124 104.666565 38.878124 104.666565Q39.4875 104.666565 39.878124 104.291565Q40.26875 103.90094 40.26875 103.33844Q40.26875 102.760315 39.8625 102.36969Q39.45625 101.96344 38.8625 101.96344Q38.253124 101.96344 37.846874 102.354065Q37.45625 102.74469 37.45625 103.27594ZM37.128124 107.24469Q37.128124 107.697815 37.33125 108.11969Q37.55 108.541565 37.971874 108.77594Q38.39375 109.010315 38.878124 109.010315Q39.628124 109.010315 40.1125 108.52594Q40.6125 108.041565 40.6125 107.291565Q40.6125 106.52594 40.1125 106.02594Q39.6125 105.52594 38.846874 105.52594Q38.096874 105.52594 37.6125 106.02594Q37.128124 106.510315 37.128124 107.24469ZM43.253124 103.197815Q43.253124 102.27594 43.70625 101.635315Q44.175 100.99469 45.05 100.99469Q45.8625 100.99469 46.39375 101.572815Q46.925 102.15094 46.925 103.260315Q46.925 104.354065 46.378124 104.947815Q45.846874 105.52594 45.065624 105.52594Q44.284374 105.52594 43.76875 104.947815Q43.253124 104.36969 43.253124 103.197815ZM45.08125 101.71344Q44.690624 101.71344 44.425 102.05719Q44.175 102.40094 44.175 103.30719Q44.175 104.135315 44.425 104.479065Q44.690624 104.80719 45.08125 104.80719Q45.4875 104.80719 45.7375 104.46344Q46.003124 104.11969 46.003124 103.229065Q46.003124 102.385315 45.7375 102.05719Q45.471874 101.71344 45.08125 101.71344ZM45.08125 110.041565L49.784374 100.99469L50.64375 100.99469L45.95625 110.041565L45.08125 110.041565ZM48.8 107.71344Q48.8 106.791565 49.253124 106.15094Q49.721874 105.510315 50.6125 105.510315Q51.425 105.510315 51.95625 106.08844Q52.4875 106.65094 52.4875 107.77594Q52.4875 108.86969 51.940624 109.46344Q51.409374 110.041565 50.6125 110.041565Q49.846874 110.041565 49.315624 109.46344Q48.8 108.885315 48.8 107.71344ZM50.64375 106.229065Q50.2375 106.229065 49.971874 106.572815Q49.721874 106.916565 49.721874 107.822815Q49.721874 108.635315 49.9875 108.979065Q50.253124 109.322815 50.64375 109.322815Q51.034374 109.322815 51.3 108.979065Q51.565624 108.635315 51.565624 107.729065Q51.565624 106.90094 51.3 106.572815Q51.034374 106.229065 50.64375 106.229065Z" fill-rule="nonzero"/><path stroke="#757575" stroke-width="1.0" stroke-linecap="butt" d="M18.55 97.229065L145.23334 97.229065L207.04202 97.229065" fill-rule="nonzero"/><path fill="#9e9e9e" d="M209.04202 97.229065C209.04202 96.1245 208.14659 95.229065 207.04202 95.229065C205.93745 95.229065 205.04202 96.1245 205.04202 97.229065C205.04202 98.33363 205.93745 99.229065 207.04202 99.229065C208.14659 99.229065 209.04202 98.33363 209.04202 97.229065" fill-rule="nonzero"/><path fill="#1a1a1a" d="M19.471874 281.15134L19.471874 272.5576L20.628124 272.5576L25.14375 279.3076L25.14375 272.5576L26.2375 272.5576L26.2375 281.15134L25.065624 281.15134L20.55 274.40134L20.55 281.15134L19.471874 281.15134ZM32.596874 279.15134L33.690624 279.27634Q33.440624 280.22946 32.7375 280.7607Q32.034374 281.29196 30.95625 281.29196Q29.596874 281.29196 28.784374 280.4482Q27.9875 279.60446 27.9875 278.08884Q27.9875 276.52634 28.8 275.66696Q29.6125 274.79196 30.89375 274.79196Q32.14375 274.79196 32.925 275.6357Q33.721874 276.47946 33.721874 278.02634Q33.721874 278.1201 33.721874 278.3076L29.08125 278.3076Q29.14375 279.33884 29.659374 279.8857Q30.175 280.41696 30.95625 280.41696Q31.534374 280.41696 31.940624 280.1201Q32.3625 279.8076 32.596874 279.15134ZM29.14375 277.4482L32.6125 277.4482Q32.55 276.65134 32.221874 276.2607Q31.70625 275.65134 30.909374 275.65134Q30.175 275.65134 29.675 276.1357Q29.190624 276.6201 29.14375 277.4482ZM39.425 281.15134L39.425 280.22946Q38.690624 281.29196 37.440624 281.29196Q36.89375 281.29196 36.409374 281.08884Q35.940624 280.8701 35.70625 280.5576Q35.471874 280.22946 35.378124 279.7607Q35.315624 279.46384 35.315624 278.77634L35.315624 274.9326L36.378124 274.9326L36.378124 278.3857Q36.378124 279.1982 36.440624 279.4951Q36.534374 279.90134 36.846874 280.15134Q37.175 280.3857 37.659374 280.3857Q38.128124 280.3857 38.534374 280.15134Q38.95625 279.90134 39.128124 279.47946Q39.315624 279.0576 39.315624 278.2607L39.315624 274.9326L40.3625 274.9326L40.3625 281.15134L39.425 281.15134ZM44.64375 280.21384L44.8 281.1357Q44.346874 281.22946 44.003124 281.22946Q43.425 281.22946 43.1125 281.0576Q42.8 280.8701 42.659374 280.5732Q42.534374 280.27634 42.534374 279.3232L42.534374 275.7451L41.76875 275.7451L41.76875 274.9326L42.534374 274.9326L42.534374 273.3857L43.58125 272.7607L43.58125 274.9326L44.64375 274.9326L44.64375 275.7451L43.58125 275.7451L43.58125 279.3857Q43.58125 279.83884 43.628124 279.96384Q43.690624 280.08884 43.815624 280.16696Q43.940624 280.2451 44.175 280.2451Q44.3625 280.2451 44.64375 280.21384ZM45.33125 281.15134L45.33125 274.9326L46.284374 274.9326L46.284374 275.8701Q46.64375 275.21384 46.940624 275.0107Q47.253124 274.79196 47.628124 274.79196Q48.159374 274.79196 48.70625 275.1201L48.346874 276.10446Q47.95625 275.8701 47.58125 275.8701Q47.221874 275.8701 46.940624 276.08884Q46.675 276.29196 46.565624 276.66696Q46.378124 277.22946 46.378124 277.8857L46.378124 281.15134L45.33125 281.15134ZM53.409374 280.3857Q52.815624 280.8857 52.26875 281.08884Q51.7375 281.29196 51.1125 281.29196Q50.08125 281.29196 49.534374 280.79196Q48.9875 280.29196 48.9875 279.5107Q48.9875 279.0576 49.190624 278.6826Q49.39375 278.29196 49.7375 278.0732Q50.08125 277.83884 50.503124 277.72946Q50.8 277.6357 51.440624 277.5576Q52.70625 277.41696 53.315624 277.1982Q53.315624 276.97946 53.315624 276.9326Q53.315624 276.27634 53.01875 276.0107Q52.6125 275.66696 51.815624 275.66696Q51.08125 275.66696 50.721874 275.9326Q50.3625 276.1826 50.190624 276.83884L49.159374 276.6982Q49.3 276.04196 49.628124 275.6357Q49.95625 275.22946 50.565624 275.0107Q51.175 274.79196 51.971874 274.79196Q52.76875 274.79196 53.26875 274.97946Q53.76875 275.16696 54.003124 275.4482Q54.2375 275.72946 54.33125 276.16696Q54.378124 276.4326 54.378124 277.1357L54.378124 278.54196Q54.378124 280.0107 54.440624 280.40134Q54.51875 280.79196 54.721874 281.15134L53.6125 281.15134Q53.45625 280.8232 53.409374 280.3857ZM53.315624 278.02634Q52.7375 278.2607 51.596874 278.4326Q50.940624 278.52634 50.675 278.65134Q50.409374 278.7607 50.253124 278.97946Q50.1125 279.1982 50.1125 279.47946Q50.1125 279.90134 50.425 280.1826Q50.753124 280.46384 51.3625 280.46384Q51.971874 280.46384 52.440624 280.1982Q52.925 279.9326 53.14375 279.46384Q53.315624 279.10446 53.315624 278.41696L53.315624 278.02634ZM56.315624 281.15134L56.315624 272.5576L57.378124 272.5576L57.378124 281.15134L56.315624 281.15134Z" fill-rule="nonzero"/><path fill="#9e9e9e" d="M24.596874 297.1357L24.596874 298.15134L18.909374 298.15134Q18.909374 297.77634 19.034374 297.41696Q19.253124 296.83884 19.721874 296.27634Q20.20625 295.71384 21.1125 294.97946Q22.51875 293.8232 23.003124 293.15134Q23.503124 292.47946 23.503124 291.8857Q23.503124 291.2607 23.05 290.83884Q22.596874 290.40134 21.878124 290.40134Q21.1125 290.40134 20.659374 290.85446Q20.20625 291.3076 20.190624 292.1201L19.1125 292.0107Q19.221874 290.79196 19.940624 290.16696Q20.675 289.52634 21.909374 289.52634Q23.14375 289.52634 23.8625 290.21384Q24.58125 290.90134 24.58125 291.91696Q24.58125 292.4326 24.3625 292.9326Q24.159374 293.41696 23.659374 293.97946Q23.175 294.52634 22.05 295.47946Q21.096874 296.27634 20.815624 296.5732Q20.55 296.85446 20.378124 297.1357L24.596874 297.1357ZM29.425 298.15134L29.425 296.08884L25.70625 296.08884L25.70625 295.1201L29.628124 289.5576L30.4875 289.5576L30.4875 295.1201L31.64375 295.1201L31.64375 296.08884L30.4875 296.08884L30.4875 298.15134L29.425 298.15134ZM29.425 295.1201L29.425 291.2607L26.7375 295.1201L29.425 295.1201ZM33.64375 298.15134L33.64375 296.9482L34.846874 296.9482L34.846874 298.15134L33.64375 298.15134ZM36.05 293.91696Q36.05 292.3857 36.3625 291.46384Q36.675 290.52634 37.284374 290.02634Q37.909374 289.52634 38.846874 289.52634Q39.534374 289.52634 40.05 289.8076Q40.58125 290.08884 40.925 290.6201Q41.26875 291.1357 41.45625 291.8857Q41.64375 292.6357 41.64375 293.91696Q41.64375 295.4326 41.33125 296.35446Q41.034374 297.27634 40.409374 297.79196Q39.8 298.29196 38.846874 298.29196Q37.6125 298.29196 36.89375 297.40134Q36.05 296.33884 36.05 293.91696ZM37.128124 293.91696Q37.128124 296.02634 37.628124 296.72946Q38.128124 297.4326 38.846874 297.4326Q39.58125 297.4326 40.065624 296.72946Q40.565624 296.02634 40.565624 293.91696Q40.565624 291.79196 40.065624 291.10446Q39.58125 290.40134 38.83125 290.40134Q38.1125 290.40134 37.675 291.0107Q37.128124 291.79196 37.128124 293.91696ZM43.253124 291.6201Q43.253124 290.6982 43.70625 290.0576Q44.175 289.41696 45.05 289.41696Q45.8625 289.41696 46.39375 289.9951Q46.925 290.5732 46.925 291.6826Q46.925 292.77634 46.378124 293.3701Q45.846874 293.9482 45.065624 293.9482Q44.284374 293.9482 43.76875 293.3701Q43.253124 292.79196 43.253124 291.6201ZM45.08125 290.1357Q44.690624 290.1357 44.425 290.47946Q44.175 290.8232 44.175 291.72946Q44.175 292.5576 44.425 292.90134Q44.690624 293.22946 45.08125 293.22946Q45.4875 293.22946 45.7375 292.8857Q46.003124 292.54196 46.003124 291.65134Q46.003124 290.8076 45.7375 290.47946Q45.471874 290.1357 45.08125 290.1357ZM45.08125 298.46384L49.784374 289.41696L50.64375 289.41696L45.95625 298.46384L45.08125 298.46384ZM48.8 296.1357Q48.8 295.21384 49.253124 294.5732Q49.721874 293.9326 50.6125 293.9326Q51.425 293.9326 51.95625 294.5107Q52.4875 295.0732 52.4875 296.1982Q52.4875 297.29196 51.940624 297.8857Q51.409374 298.46384 50.6125 298.46384Q49.846874 298.46384 49.315624 297.8857Q48.8 297.3076 48.8 296.1357ZM50.64375 294.65134Q50.2375 294.65134 49.971874 294.9951Q49.721874 295.33884 49.721874 296.2451Q49.721874 297.0576 49.9875 297.40134Q50.253124 297.7451 50.64375 297.7451Q51.034374 297.7451 51.3 297.40134Q51.565624 297.0576 51.565624 296.15134Q51.565624 295.3232 51.3 294.9951Q51.034374 294.65134 50.64375 294.65134Z" fill-rule="nonzero"/><path stroke="#757575" stroke-width="1.0" stroke-linecap="butt" d="M18.55 285.65134L145.23334 285.65134L184.86987 285.65134" fill-rule="nonzero"/><path fill="#9e9e9e" d="M186.86987 285.65134C186.86987 284.54675 185.97444 283.65134 184.86987 283.65134C183.7653 283.65134 182.86987 284.54675 182.86987 285.65134C182.86987 286.7559 183.7653 287.65134 184.86987 287.65134C185.97444 287.65134 186.86987 286.7559 186.86987 285.65134" fill-rule="nonzero"/><path fill="#1a1a1a" d="M539.3719 213.16794L539.3719 204.57419L542.6219 204.57419Q543.46564 204.57419 543.91876 204.65231Q544.5594 204.76169 544.98126 205.05856Q545.41876 205.35544 545.66876 205.88669Q545.9344 206.41794 545.9344 207.05856Q545.9344 208.15231 545.23126 208.91794Q544.54376 209.66794 542.71564 209.66794L540.5125 209.66794L540.5125 213.16794L539.3719 213.16794ZM540.5125 208.66794L542.73126 208.66794Q543.84064 208.66794 544.29376 208.26169Q544.7625 207.83981 544.7625 207.08981Q544.7625 206.55856 544.48126 206.18356Q544.21564 205.79294 543.77814 205.66794Q543.48126 205.58981 542.71564 205.58981L540.5125 205.58981L540.5125 208.66794ZM546.85626 210.05856Q546.85626 208.32419 547.8094 207.49606Q548.60626 206.80856 549.7625 206.80856Q551.04376 206.80856 551.85626 207.65231Q552.6844 208.48044 552.6844 209.96481Q552.6844 211.16794 552.325 211.85544Q551.96564 212.54294 551.2625 212.93356Q550.575 213.30856 549.7625 213.30856Q548.46564 213.30856 547.65314 212.48044Q546.85626 211.63669 546.85626 210.05856ZM547.9344 210.05856Q547.9344 211.24606 548.45 211.83981Q548.98126 212.43356 549.7625 212.43356Q550.5594 212.43356 551.075 211.83981Q551.59064 211.24606 551.59064 210.02731Q551.59064 208.87106 551.0594 208.27731Q550.54376 207.68356 549.7625 207.68356Q548.98126 207.68356 548.45 208.27731Q547.9344 208.85544 547.9344 210.05856ZM553.825 211.30856L554.85626 211.15231Q554.95 211.77731 555.34064 212.10544Q555.7469 212.43356 556.48126 212.43356Q557.2 212.43356 557.54376 212.15231Q557.90314 211.85544 557.90314 211.44919Q557.90314 211.08981 557.59064 210.88669Q557.3719 210.74606 556.5125 210.52731Q555.35626 210.23044 554.90314 210.02731Q554.46564 209.80856 554.23126 209.43356Q553.9969 209.05856 553.9969 208.58981Q553.9969 208.18356 554.1844 207.82419Q554.3719 207.46481 554.7 207.23044Q554.95 207.05856 555.3719 206.93356Q555.79376 206.80856 556.29376 206.80856Q557.0125 206.80856 557.5594 207.02731Q558.1219 207.23044 558.3875 207.58981Q558.65314 207.94919 558.7469 208.54294L557.71564 208.68356Q557.65314 208.21481 557.3094 207.94919Q556.98126 207.66794 556.35626 207.66794Q555.6375 207.66794 555.325 207.91794Q555.0125 208.15231 555.0125 208.48044Q555.0125 208.68356 555.1375 208.83981Q555.27814 209.01169 555.54376 209.12106Q555.7 209.18356 556.48126 209.38669Q557.60626 209.69919 558.04376 209.88669Q558.48126 210.07419 558.73126 210.43356Q558.98126 210.79294 558.98126 211.33981Q558.98126 211.87106 558.66876 212.33981Q558.3719 212.79294 557.79376 213.05856Q557.21564 213.30856 556.48126 213.30856Q555.2625 213.30856 554.6219 212.80856Q553.9969 212.29294 553.825 211.30856ZM561.2469 205.79294L561.2469 204.57419L562.3094 204.57419L562.3094 205.79294L561.2469 205.79294ZM561.2469 213.16794L561.2469 206.94919L562.3094 206.94919L562.3094 213.16794L561.2469 213.16794ZM566.54376 212.23044L566.7 213.15231Q566.2469 213.24606 565.90314 213.24606Q565.325 213.24606 565.0125 213.07419Q564.7 212.88669 564.5594 212.58981Q564.4344 212.29294 564.4344 211.33981L564.4344 207.76169L563.66876 207.76169L563.66876 206.94919L564.4344 206.94919L564.4344 205.40231L565.48126 204.77731L565.48126 206.94919L566.54376 206.94919L566.54376 207.76169L565.48126 207.76169L565.48126 211.40231Q565.48126 211.85544 565.52814 211.98044Q565.59064 212.10544 565.71564 212.18356Q565.84064 212.26169 566.075 212.26169Q566.2625 212.26169 566.54376 212.23044ZM567.2469 205.79294L567.2469 204.57419L568.3094 204.57419L568.3094 205.79294L567.2469 205.79294ZM567.2469 213.16794L567.2469 206.94919L568.3094 206.94919L568.3094 213.16794L567.2469 213.16794ZM571.96564 213.16794L569.60626 206.94919L570.71564 206.94919L572.0594 210.66794Q572.2625 211.27731 572.45 211.91794Q572.59064 211.43356 572.84064 210.74606L574.23126 206.94919L575.3094 206.94919L572.95 213.16794L571.96564 213.16794ZM579.4969 211.16794L580.59064 211.29294Q580.34064 212.24606 579.6375 212.77731Q578.9344 213.30856 577.85626 213.30856Q576.4969 213.30856 575.6844 212.46481Q574.8875 211.62106 574.8875 210.10544Q574.8875 208.54294 575.7 207.68356Q576.5125 206.80856 577.79376 206.80856Q579.04376 206.80856 579.825 207.65231Q580.6219 208.49606 580.6219 210.04294Q580.6219 210.13669 580.6219 210.32419L575.98126 210.32419Q576.04376 211.35544 576.5594 211.90231Q577.075 212.43356 577.85626 212.43356Q578.4344 212.43356 578.84064 212.13669Q579.2625 211.82419 579.4969 211.16794ZM576.04376 209.46481L579.5125 209.46481Q579.45 208.66794 579.1219 208.27731Q578.60626 207.66794 577.8094 207.66794Q577.075 207.66794 576.575 208.15231Q576.09064 208.63669 576.04376 209.46481Z" fill-rule="nonzero"/><path fill="#9e9e9e" d="M546.95 227.91794L548.0594 227.82419Q548.1844 228.63669 548.6219 229.04294Q549.075 229.44919 549.71564 229.44919Q550.46564 229.44919 550.9969 228.87106Q551.52814 228.29294 551.52814 227.35544Q551.52814 226.44919 551.0125 225.93356Q550.5125 225.40231 549.6844 225.40231Q549.1844 225.40231 548.7625 225.63669Q548.35626 225.87106 548.1219 226.23044L547.1375 226.10544L547.96564 221.69919L552.2469 221.69919L552.2469 222.69919L548.8094 222.69919L548.35626 225.01169Q549.1219 224.46481 549.96564 224.46481Q551.09064 224.46481 551.85626 225.24606Q552.6375 226.02731 552.6375 227.26169Q552.6375 228.41794 551.96564 229.27731Q551.1375 230.30856 549.71564 230.30856Q548.54376 230.30856 547.79376 229.65231Q547.0594 228.99606 546.95 227.91794ZM553.95 227.90231L555.0125 227.76169Q555.1844 228.65231 555.6219 229.05856Q556.0594 229.44919 556.6844 229.44919Q557.4344 229.44919 557.95 228.93356Q558.46564 228.41794 558.46564 227.65231Q558.46564 226.93356 557.98126 226.46481Q557.5125 225.98044 556.77814 225.98044Q556.48126 225.98044 556.02814 226.10544L556.15314 225.16794Q556.2625 225.18356 556.325 225.18356Q556.9969 225.18356 557.52814 224.83981Q558.075 224.48044 558.075 223.74606Q558.075 223.16794 557.6844 222.79294Q557.29376 222.40231 556.66876 222.40231Q556.0594 222.40231 555.6375 222.79294Q555.23126 223.18356 555.1219 223.94919L554.0594 223.76169Q554.2469 222.71481 554.9344 222.13669Q555.6219 221.54294 556.6375 221.54294Q557.34064 221.54294 557.9344 221.85544Q558.52814 222.15231 558.84064 222.66794Q559.15314 223.18356 559.15314 223.77731Q559.15314 224.32419 558.85626 224.79294Q558.5594 225.24606 557.98126 225.51169Q558.73126 225.68356 559.15314 226.24606Q559.575 226.79294 559.575 227.63669Q559.575 228.76169 558.7469 229.54294Q557.9344 230.32419 556.6844 230.32419Q555.5594 230.32419 554.8094 229.65231Q554.0594 228.96481 553.95 227.90231ZM561.54376 230.16794L561.54376 228.96481L562.7469 228.96481L562.7469 230.16794L561.54376 230.16794ZM569.4969 229.15231L569.4969 230.16794L563.8094 230.16794Q563.8094 229.79294 563.9344 229.43356Q564.15314 228.85544 564.6219 228.29294Q565.10626 227.73044 566.0125 226.99606Q567.41876 225.83981 567.90314 225.16794Q568.40314 224.49606 568.40314 223.90231Q568.40314 223.27731 567.95 222.85544Q567.4969 222.41794 566.77814 222.41794Q566.0125 222.41794 565.5594 222.87106Q565.10626 223.32419 565.09064 224.13669L564.0125 224.02731Q564.1219 222.80856 564.84064 222.18356Q565.575 221.54294 566.8094 221.54294Q568.04376 221.54294 568.7625 222.23044Q569.48126 222.91794 569.48126 223.93356Q569.48126 224.44919 569.2625 224.94919Q569.0594 225.43356 568.5594 225.99606Q568.075 226.54294 566.95 227.49606Q565.9969 228.29294 565.71564 228.58981Q565.45 228.87106 565.27814 229.15231L569.4969 229.15231ZM571.15314 223.63669Q571.15314 222.71481 571.60626 222.07419Q572.075 221.43356 572.95 221.43356Q573.7625 221.43356 574.29376 222.01169Q574.825 222.58981 574.825 223.69919Q574.825 224.79294 574.27814 225.38669Q573.7469 225.96481 572.96564 225.96481Q572.1844 225.96481 571.66876 225.38669Q571.15314 224.80856 571.15314 223.63669ZM572.98126 222.15231Q572.59064 222.15231 572.325 222.49606Q572.075 222.83981 572.075 223.74606Q572.075 224.57419 572.325 224.91794Q572.59064 225.24606 572.98126 225.24606Q573.3875 225.24606 573.6375 224.90231Q573.90314 224.55856 573.90314 223.66794Q573.90314 222.82419 573.6375 222.49606Q573.3719 222.15231 572.98126 222.15231ZM572.98126 230.48044L577.6844 221.43356L578.54376 221.43356L573.85626 230.48044L572.98126 230.48044ZM576.7 228.15231Q576.7 227.23044 577.15314 226.58981Q577.6219 225.94919 578.5125 225.94919Q579.325 225.94919 579.85626 226.52731Q580.3875 227.08981 580.3875 228.21481Q580.3875 229.30856 579.84064 229.90231Q579.3094 230.48044 578.5125 230.48044Q577.7469 230.48044 577.21564 229.90231Q576.7 229.32419 576.7 228.15231ZM578.54376 226.66794Q578.1375 226.66794 577.8719 227.01169Q577.6219 227.35544 577.6219 228.26169Q577.6219 229.07419 577.8875 229.41794Q578.15314 229.76169 578.54376 229.76169Q578.9344 229.76169 579.2 229.41794Q579.46564 229.07419 579.46564 228.16794Q579.46564 227.33981 579.2 227.01169Q578.9344 226.66794 578.54376 226.66794Z" fill-rule="nonzero"/><path stroke="#757575" stroke-width="1.0" stroke-linecap="butt" d="M581.45 217.66794L454.76666 217.66794L440.63474 217.66794" fill-rule="nonzero"/><path fill="#9e9e9e" d="M442.63474 217.66794C442.63474 216.56337 441.73932 215.66794 440.63474 215.66794C439.53015 215.66794 438.63474 216.56337 438.63474 217.66794C438.63474 218.7725 439.53015 219.66794 440.63474 219.66794C441.73932 219.66794 442.63474 218.7725 442.63474 217.66794" fill-rule="nonzero"/><path fill="#757575" d="M20.01875 37.55L20.01875 23.2375L26.096874 23.2375Q28.39375 23.2375 29.425 23.628124Q30.471874 24.003124 31.096874 24.9875Q31.721874 25.971874 31.721874 27.253124Q31.721874 28.8625 30.76875 29.909374Q29.83125 30.95625 27.940624 31.2375Q28.878124 31.784374 29.4875 32.440624Q30.096874 33.08125 31.14375 34.753124L32.89375 37.55L29.425 37.55L27.346874 34.440624Q26.221874 32.76875 25.815624 32.33125Q25.409374 31.89375 24.940624 31.7375Q24.4875 31.565624 23.4875 31.565624L22.909374 31.565624L22.909374 37.55L20.01875 37.55ZM22.909374 29.284374L25.05 29.284374Q27.128124 29.284374 27.64375 29.1125Q28.159374 28.940624 28.45625 28.51875Q28.753124 28.08125 28.753124 27.425Q28.753124 26.70625 28.3625 26.26875Q27.971874 25.815624 27.26875 25.70625Q26.925 25.659374 25.159374 25.659374L22.909374 25.659374L22.909374 29.284374ZM39.9875 34.253124L42.721874 34.70625Q42.20625 36.20625 41.065624 37.003124Q39.925 37.784374 38.221874 37.784374Q35.503124 37.784374 34.20625 36.01875Q33.190624 34.596874 33.190624 32.440624Q33.190624 29.8625 34.534374 28.409374Q35.878124 26.940624 37.940624 26.940624Q40.253124 26.940624 41.58125 28.471874Q42.925 30.003124 42.878124 33.159374L36.003124 33.159374Q36.034374 34.378124 36.659374 35.065624Q37.3 35.7375 38.2375 35.7375Q38.89375 35.7375 39.33125 35.39375Q39.76875 35.034374 39.9875 34.253124ZM40.14375 31.471874Q40.1125 30.284374 39.51875 29.675Q38.940624 29.05 38.1125 29.05Q37.20625 29.05 36.628124 29.690624Q36.034374 30.346874 36.05 31.471874L40.14375 31.471874ZM47.83125 37.55L43.659374 27.175L46.534374 27.175L48.4875 32.471874L49.065624 34.2375Q49.284374 33.565624 49.346874 33.346874Q49.471874 32.909374 49.628124 32.471874L51.6125 27.175L54.425 27.175L50.315624 37.55L47.83125 37.55ZM55.9875 25.76875L55.9875 23.2375L58.7375 23.2375L58.7375 25.76875L55.9875 25.76875ZM55.9875 37.55L55.9875 27.175L58.7375 27.175L58.7375 37.55L55.9875 37.55ZM66.9875 34.253124L69.72188 34.70625Q69.20625 36.20625 68.06563 37.003124Q66.925 37.784374 65.22188 37.784374Q62.503124 37.784374 61.20625 36.01875Q60.190624 34.596874 60.190624 32.440624Q60.190624 29.8625 61.534374 28.409374Q62.878124 26.940624 64.94063 26.940624Q67.25313 26.940624 68.58125 28.471874Q69.925 30.003124 69.87813 33.159374L63.003124 33.159374Q63.034374 34.378124 63.659374 35.065624Q64.3 35.7375 65.2375 35.7375Q65.89375 35.7375 66.33125 35.39375Q66.76875 35.034374 66.9875 34.253124ZM67.14375 31.471874Q67.1125 30.284374 66.51875 29.675Q65.94063 29.05 65.1125 29.05Q64.20625 29.05 63.628124 29.690624Q63.034374 30.346874 63.05 31.471874L67.14375 31.471874ZM73.925 37.55L70.64375 27.175L73.3 27.175L75.25313 33.971874L77.03438 27.175L79.675 27.175L81.40938 33.971874L83.39375 27.175L86.09688 27.175L82.76875 37.55L80.12813 37.55L78.34688 30.878124L76.58125 37.55L73.925 37.55ZM86.01875 34.596874L88.76875 34.175Q88.95625 34.971874 89.4875 35.39375Q90.01875 35.8 90.9875 35.8Q92.05 35.8 92.59688 35.409374Q92.95625 35.14375 92.95625 34.675Q92.95625 34.3625 92.75313 34.159374Q92.55 33.971874 91.84688 33.8Q88.51875 33.065624 87.62813 32.45625Q86.39375 31.628124 86.39375 30.128124Q86.39375 28.784374 87.45625 27.8625Q88.53438 26.940624 90.76875 26.940624Q92.89375 26.940624 93.925 27.64375Q94.97188 28.33125 95.3625 29.690624L92.76875 30.159374Q92.59688 29.565624 92.12813 29.2375Q91.675 28.909374 90.81563 28.909374Q89.7375 28.909374 89.26875 29.221874Q88.95625 29.440624 88.95625 29.76875Q88.95625 30.065624 89.22188 30.26875Q89.59688 30.55 91.78438 31.05Q93.97188 31.55 94.84688 32.26875Q95.70625 33.003124 95.70625 34.3Q95.70625 35.7375 94.51875 36.76875Q93.33125 37.784374 90.9875 37.784374Q88.87813 37.784374 87.62813 36.925Q86.39375 36.065624 86.01875 34.596874ZM102.78438 27.175L104.31563 27.175L104.31563 26.39375Q104.31563 25.08125 104.58125 24.440624Q104.8625 23.8 105.6125 23.39375Q106.3625 22.9875 107.50313 22.9875Q108.675 22.9875 109.8 23.346874L109.425 25.253124Q108.76875 25.096874 108.15938 25.096874Q107.56563 25.096874 107.3 25.378124Q107.05 25.659374 107.05 26.440624L107.05 27.175L109.09688 27.175L109.09688 29.33125L107.05 29.33125L107.05 37.55L104.31563 37.55L104.31563 29.33125L102.78438 29.33125L102.78438 27.175ZM113.6125 37.55L110.8625 37.55L110.8625 27.175L113.425 27.175L113.425 28.659374Q114.06563 27.6125 114.58125 27.284374Q115.1125 26.940624 115.78438 26.940624Q116.72188 26.940624 117.58125 27.45625L116.7375 29.846874Q116.05 29.409374 115.45625 29.409374Q114.87813 29.409374 114.47188 29.721874Q114.06563 30.034374 113.83125 30.878124Q113.6125 31.70625 113.6125 34.346874L113.6125 37.55ZM118.34688 32.221874Q118.34688 30.846874 119.01875 29.565624Q119.70625 28.284374 120.94063 27.6125Q122.175 26.940624 123.69063 26.940624Q126.05 26.940624 127.55 28.471874Q129.05 30.003124 129.05 32.33125Q129.05 34.690624 127.53438 36.2375Q126.01875 37.784374 123.70625 37.784374Q122.28438 37.784374 120.9875 37.14375Q119.70625 36.4875 119.01875 35.253124Q118.34688 34.003124 118.34688 32.221874ZM121.15938 32.3625Q121.15938 33.909374 121.89375 34.7375Q122.62813 35.55 123.70625 35.55Q124.78438 35.55 125.50313 34.7375Q126.2375 33.909374 126.2375 32.346874Q126.2375 30.815624 125.50313 30.003124Q124.78438 29.175 123.70625 29.175Q122.62813 29.175 121.89375 30.003124Q121.15938 30.815624 121.15938 32.3625ZM130.78438 27.175L133.31563 27.175L133.31563 28.596874Q134.675 26.940624 136.55 26.940624Q137.53438 26.940624 138.26875 27.3625Q139.00313 27.76875 139.47188 28.596874Q140.15938 27.76875 140.94063 27.3625Q141.7375 26.940624 142.64375 26.940624Q143.78438 26.940624 144.56563 27.409374Q145.3625 27.878124 145.75313 28.76875Q146.03438 29.440624 146.03438 30.925L146.03438 37.55L143.28438 37.55L143.28438 31.628124Q143.28438 30.08125 143.00313 29.628124Q142.62813 29.05 141.83125 29.05Q141.25313 29.05 140.7375 29.409374Q140.2375 29.753124 140.01875 30.425Q139.8 31.096874 139.8 32.565624L139.8 37.55L137.05 37.55L137.05 31.8625Q137.05 30.346874 136.89375 29.909374Q136.75313 29.471874 136.44063 29.26875Q136.14375 29.05 135.6125 29.05Q134.9875 29.05 134.47188 29.39375Q133.97188 29.721874 133.7375 30.378124Q133.51875 31.01875 133.51875 32.503124L133.51875 37.55L130.78438 37.55L130.78438 27.175ZM153.26875 32.89375L156.08125 32.6125Q156.34688 34.034374 157.1125 34.70625Q157.89375 35.3625 159.20625 35.3625Q160.6125 35.3625 161.31563 34.76875Q162.01875 34.175 162.01875 33.39375Q162.01875 32.878124 161.72188 32.534374Q161.425 32.175 160.69063 31.909374Q160.175 31.721874 158.37813 31.284374Q156.05 30.70625 155.1125 29.8625Q153.78438 28.675 153.78438 26.9875Q153.78438 25.89375 154.40938 24.940624Q155.03438 23.9875 156.19063 23.4875Q157.3625 22.9875 159.01875 22.9875Q161.70625 22.9875 163.06563 24.175Q164.44063 25.346874 164.50313 27.33125L161.6125 27.45625Q161.425 26.346874 160.81563 25.8625Q160.20625 25.378124 158.9875 25.378124Q157.72188 25.378124 157.01875 25.89375Q156.55 26.2375 156.55 26.784374Q156.55 27.3 156.9875 27.659374Q157.53438 28.1125 159.64375 28.6125Q161.75313 29.1125 162.75313 29.64375Q163.76875 30.175 164.33125 31.096874Q164.90938 32.01875 164.90938 33.378124Q164.90938 34.6125 164.22188 35.690624Q163.55 36.753124 162.3 37.284374Q161.05 37.8 159.175 37.8Q156.47188 37.8 155.00313 36.55Q153.55 35.3 153.26875 32.89375ZM173.81563 37.55L173.81563 36.003124Q173.25313 36.83125 172.31563 37.315624Q171.39375 37.784374 170.37813 37.784374Q169.33125 37.784374 168.50313 37.33125Q167.675 36.8625 167.3 36.034374Q166.925 35.20625 166.925 33.7375L166.925 27.175L169.675 27.175L169.675 31.940624Q169.675 34.128124 169.81563 34.628124Q169.97188 35.1125 170.3625 35.409374Q170.76875 35.690624 171.39375 35.690624Q172.09688 35.690624 172.64375 35.315624Q173.20625 34.925 173.40938 34.3625Q173.6125 33.784374 173.6125 31.55L173.6125 27.175L176.3625 27.175L176.3625 37.55L173.81563 37.55ZM181.6125 37.55L178.8625 37.55L178.8625 27.175L181.425 27.175L181.425 28.659374Q182.06563 27.6125 182.58125 27.284374Q183.1125 26.940624 183.78438 26.940624Q184.72188 26.940624 185.58125 27.45625L184.7375 29.846874Q184.05 29.409374 183.45625 29.409374Q182.87813 29.409374 182.47188 29.721874Q182.06563 30.034374 181.83125 30.878124Q181.6125 31.70625 181.6125 34.346874L181.6125 37.55ZM189.83125 37.55L185.65938 27.175L188.53438 27.175L190.4875 32.471874L191.06563 34.2375Q191.28438 33.565624 191.34688 33.346874Q191.47188 32.909374 191.62813 32.471874L193.6125 27.175L196.425 27.175L192.31563 37.55L189.83125 37.55ZM203.9875 34.253124L206.72188 34.70625Q206.20625 36.20625 205.06563 37.003124Q203.925 37.784374 202.22188 37.784374Q199.50313 37.784374 198.20625 36.01875Q197.19063 34.596874 197.19063 32.440624Q197.19063 29.8625 198.53438 28.409374Q199.87813 26.940624 201.94063 26.940624Q204.25313 26.940624 205.58125 28.471874Q206.925 30.003124 206.87813 33.159374L200.00313 33.159374Q200.03438 34.378124 200.65938 35.065624Q201.3 35.7375 202.2375 35.7375Q202.89375 35.7375 203.33125 35.39375Q203.76875 35.034374 203.9875 34.253124ZM204.14375 31.471874Q204.1125 30.284374 203.51875 29.675Q202.94063 29.05 202.1125 29.05Q201.20625 29.05 200.62813 29.690624Q200.03438 30.346874 200.05 31.471874L204.14375 31.471874ZM207.69063 27.175L210.6125 27.175L213.08125 34.534374L215.50313 27.175L218.34688 27.175L214.69063 37.159374L214.03438 38.971874Q213.675 39.878124 213.34688 40.346874Q213.01875 40.83125 212.59688 41.128124Q212.175 41.425 211.55 41.58125Q210.925 41.753124 210.14375 41.753124Q209.3625 41.753124 208.59688 41.596874L208.34688 39.440624Q209.00313 39.565624 209.51875 39.565624Q210.47188 39.565624 210.925 39.003124Q211.39375 38.45625 211.62813 37.58125L207.69063 27.175ZM226.01875 37.55L226.01875 23.2375L235.84688 23.2375L235.84688 25.659374L228.90938 25.659374L228.90938 29.05L234.89375 29.05L234.89375 31.471874L228.90938 31.471874L228.90938 37.55L226.01875 37.55ZM243.9875 34.253124L246.72188 34.70625Q246.20625 36.20625 245.06563 37.003124Q243.925 37.784374 242.22188 37.784374Q239.50313 37.784374 238.20625 36.01875Q237.19063 34.596874 237.19063 32.440624Q237.19063 29.8625 238.53438 28.409374Q239.87813 26.940624 241.94063 26.940624Q244.25313 26.940624 245.58125 28.471874Q246.925 30.003124 246.87813 33.159374L240.00313 33.159374Q240.03438 34.378124 240.65938 35.065624Q241.3 35.7375 242.2375 35.7375Q242.89375 35.7375 243.33125 35.39375Q243.76875 35.034374 243.9875 34.253124ZM244.14375 31.471874Q244.1125 30.284374 243.51875 29.675Q242.94063 29.05 242.1125 29.05Q241.20625 29.05 240.62813 29.690624Q240.03438 30.346874 240.05 31.471874L244.14375 31.471874ZM254.9875 34.253124L257.72186 34.70625Q257.20624 36.20625 256.0656 37.003124Q254.925 37.784374 253.22188 37.784374Q250.50313 37.784374 249.20625 36.01875Q248.19063 34.596874 248.19063 32.440624Q248.19063 29.8625 249.53438 28.409374Q250.87813 26.940624 252.94063 26.940624Q255.25313 26.940624 256.58124 28.471874Q257.925 30.003124 257.8781 33.159374L251.00313 33.159374Q251.03438 34.378124 251.65938 35.065624Q252.3 35.7375 253.2375 35.7375Q253.89375 35.7375 254.33125 35.39375Q254.76875 35.034374 254.9875 34.253124ZM255.14375 31.471874Q255.1125 30.284374 254.51875 29.675Q253.94063 29.05 253.1125 29.05Q252.20625 29.05 251.62813 29.690624Q251.03438 30.346874 251.05 31.471874L255.14375 31.471874ZM269.5031 37.55L266.95624 37.55L266.95624 36.01875Q266.3156 36.909374 265.4406 37.346874Q264.58124 37.784374 263.70624 37.784374Q261.925 37.784374 260.64374 36.346874Q259.3781 34.909374 259.3781 32.33125Q259.3781 29.690624 260.6125 28.315624Q261.84686 26.940624 263.7531 26.940624Q265.4875 26.940624 266.7531 28.39375L266.7531 23.2375L269.5031 23.2375L269.5031 37.55ZM262.175 32.14375Q262.175 33.8 262.6281 34.534374Q263.3 35.6125 264.4875 35.6125Q265.4406 35.6125 266.09686 34.815624Q266.76874 34.003124 266.76874 32.409374Q266.76874 30.6125 266.1125 29.83125Q265.47186 29.05 264.47186 29.05Q263.4875 29.05 262.83124 29.83125Q262.175 30.596874 262.175 32.14375ZM271.8625 37.55L271.8625 23.2375L274.6125 23.2375L274.6125 28.39375Q275.8781 26.940624 277.6281 26.940624Q279.51874 26.940624 280.7531 28.315624Q282.0031 29.690624 282.0031 32.253124Q282.0031 34.909374 280.7375 36.346874Q279.47186 37.784374 277.65936 37.784374Q276.76874 37.784374 275.90936 37.346874Q275.05 36.89375 274.425 36.01875L274.425 37.55L271.8625 37.55ZM274.59686 32.14375Q274.59686 33.753124 275.09686 34.51875Q275.8156 35.6125 277.0031 35.6125Q277.90936 35.6125 278.55 34.846874Q279.1906 34.065624 279.1906 32.39375Q279.1906 30.6125 278.53436 29.83125Q277.89374 29.05 276.89374 29.05Q275.90936 29.05 275.2531 29.815624Q274.59686 30.58125 274.59686 32.14375ZM286.03436 30.346874L283.55 29.89375Q283.97186 28.39375 284.9875 27.675Q286.01874 26.940624 288.03436 26.940624Q289.8781 26.940624 290.76874 27.378124Q291.675 27.815624 292.03436 28.4875Q292.40936 29.14375 292.40936 30.940624L292.3781 34.14375Q292.3781 35.503124 292.5031 36.159374Q292.64374 36.8 293.0031 37.55L290.28436 37.55Q290.175 37.26875 290.01874 36.7375Q289.95624 36.4875 289.925 36.409374Q289.22186 37.096874 288.40936 37.440624Q287.6125 37.784374 286.70624 37.784374Q285.1125 37.784374 284.1906 36.925Q283.26874 36.05 283.26874 34.721874Q283.26874 33.83125 283.675 33.14375Q284.09686 32.45625 284.84686 32.096874Q285.6125 31.721874 287.05 31.45625Q288.97186 31.096874 289.70624 30.784374L289.70624 30.503124Q289.70624 29.721874 289.3156 29.39375Q288.925 29.05 287.84686 29.05Q287.1125 29.05 286.6906 29.33125Q286.28436 29.6125 286.03436 30.346874ZM289.70624 32.565624Q289.175 32.7375 288.03436 32.9875Q286.89374 33.2375 286.55 33.471874Q286.0031 33.846874 286.0031 34.440624Q286.0031 35.003124 286.425 35.425Q286.8625 35.846874 287.53436 35.846874Q288.26874 35.846874 288.9406 35.3625Q289.4406 34.9875 289.59686 34.45625Q289.70624 34.096874 289.70624 33.1125L289.70624 32.565624ZM304.03436 30.2375L301.33124 30.7375Q301.1906 29.925 300.70624 29.51875Q300.22186 29.096874 299.45624 29.096874Q298.425 29.096874 297.8156 29.815624Q297.20624 30.51875 297.20624 32.175Q297.20624 34.01875 297.8156 34.784374Q298.4406 35.55 299.4875 35.55Q300.26874 35.55 300.76874 35.1125Q301.26874 34.659374 301.47186 33.58125L304.15936 34.034374Q303.7531 35.89375 302.55 36.846874Q301.3625 37.784374 299.3625 37.784374Q297.08124 37.784374 295.72186 36.346874Q294.3781 34.909374 294.3781 32.378124Q294.3781 29.8 295.7375 28.378124Q297.09686 26.940624 299.40936 26.940624Q301.3 26.940624 302.40936 27.76875Q303.53436 28.58125 304.03436 30.2375ZM305.89374 37.55L305.89374 23.2375L308.6281 23.2375L308.6281 30.83125L311.84686 27.175L315.22186 27.175L311.675 30.971874L315.47186 37.55L312.51874 37.55L309.90936 32.89375L308.6281 34.221874L308.6281 37.55L305.89374 37.55Z" fill-rule="nonzero"/></svg>