<svg version="1.1" viewBox="0.0 0.0 600.0 371.0" fill="none" stroke="none" stroke-linecap="square" stroke-miterlimit="10" width="600" height="371" xmlns:xlink="http://www.w3.org/1999/xlink" xmlns="http://www.w3.org/2000/svg"><path fill="#ffffff" d="M0 0L600.0 0L600.0 371.0L0 371.0L0 0Z" fill-rule="nonzero"/><path fill="#ff0000" d="M153.18993 179.635C164.97102 107.713844 227.12033 54.916668 300.0 54.916668L300.0 203.68333Z" fill-rule="nonzero"/><path fill="#4285f4" d="M259.29776 346.77368C186.6108 326.09778 140.97386 254.2115 153.18993 179.635L300.0 203.68333Z" fill-rule="nonzero"/><path fill="#42d400" d="M300.0 54.916668C358.09045 54.916668 410.86725 88.72911 435.14795 141.50171C459.42865 194.27432 450.7712 256.35266 412.97852 300.46854C375.1858 344.5844 315.17172 362.6671 259.29776 346.77368L300.0 203.68333Z" fill-rule="nonzero"/><path fill="#1a1a1a" d="M19.471874 91.4743L19.471874 82.88055L20.628124 82.88055L25.14375 89.63055L25.14375 82.88055L26.2375 82.88055L26.2375 91.4743L25.065624 91.4743L20.55 84.7243L20.55 91.4743L19.471874 91.4743ZM32.596874 89.4743L33.690624 89.5993Q33.440624 90.55242 32.7375 91.08367Q32.034374 91.61492 30.95625 91.61492Q29.596874 91.61492 28.784374 90.77117Q27.9875 89.92742 27.9875 88.4118Q27.9875 86.8493 28.8 85.98992Q29.6125 85.11492 30.89375 85.11492Q32.14375 85.11492 32.925 85.95867Q33.721874 86.80242 33.721874 88.3493Q33.721874 88.44305 33.721874 88.63055L29.08125 88.63055Q29.14375 89.6618 29.659374 90.20867Q30.175 90.73992 30.95625 90.73992Q31.534374 90.73992 31.940624 90.44305Q32.3625 90.13055 32.596874 89.4743ZM29.14375 87.77117L32.6125 87.77117Q32.55 86.9743 32.221874 86.58367Q31.70625 85.9743 30.909374 85.9743Q30.175 85.9743 29.675 86.45867Q29.190624 86.94305 29.14375 87.77117ZM35.14375 91.98992L36.175 92.14617Q36.2375 92.61492 36.534374 92.83367Q36.925 93.13055 37.596874 93.13055Q38.33125 93.13055 38.721874 92.83367Q39.128124 92.5368 39.26875 92.02117Q39.3625 91.69305 39.346874 90.6618Q38.659374 91.4743 37.628124 91.4743Q36.346874 91.4743 35.64375 90.55242Q34.940624 89.61492 34.940624 88.33367Q34.940624 87.44305 35.253124 86.69305Q35.58125 85.92742 36.190624 85.52117Q36.8 85.11492 37.628124 85.11492Q38.7375 85.11492 39.45625 86.00555L39.45625 85.25555L40.425 85.25555L40.425 90.63055Q40.425 92.08367 40.128124 92.69305Q39.83125 93.30242 39.190624 93.64617Q38.55 94.00555 37.6125 94.00555Q36.503124 94.00555 35.815624 93.50555Q35.128124 93.00555 35.14375 91.98992ZM36.01875 88.25555Q36.01875 89.4743 36.503124 90.0368Q36.9875 90.5993 37.721874 90.5993Q38.45625 90.5993 38.940624 90.0368Q39.440624 89.4743 39.440624 88.2868Q39.440624 87.14617 38.925 86.56805Q38.425 85.98992 37.70625 85.98992Q37.003124 85.98992 36.503124 86.56805Q36.01875 87.13055 36.01875 88.25555ZM46.409374 90.70867Q45.815624 91.20867 45.26875 91.4118Q44.7375 91.61492 44.1125 91.61492Q43.08125 91.61492 42.534374 91.11492Q41.9875 90.61492 41.9875 89.83367Q41.9875 89.38055 42.190624 89.00555Q42.39375 88.61492 42.7375 88.39617Q43.08125 88.1618 43.503124 88.05242Q43.8 87.95867 44.440624 87.88055Q45.70625 87.73992 46.315624 87.52117Q46.315624 87.30242 46.315624 87.25555Q46.315624 86.5993 46.01875 86.33367Q45.6125 85.98992 44.815624 85.98992Q44.08125 85.98992 43.721874 86.25555Q43.3625 86.50555 43.190624 87.1618L42.159374 87.02117Q42.3 86.36492 42.628124 85.95867Q42.95625 85.55242 43.565624 85.33367Q44.175 85.11492 44.971874 85.11492Q45.76875 85.11492 46.26875 85.30242Q46.76875 85.48992 47.003124 85.77117Q47.2375 86.05242 47.33125 86.48992Q47.378124 86.75555 47.378124 87.45867L47.378124 88.86492Q47.378124 90.33367 47.440624 90.7243Q47.51875 91.11492 47.721874 91.4743L46.6125 91.4743Q46.45625 91.14617 46.409374 90.70867ZM46.315624 88.3493Q45.7375 88.58367 44.596874 88.75555Q43.940624 88.8493 43.675 88.9743Q43.409374 89.08367 43.253124 89.30242Q43.1125 89.52117 43.1125 89.80242Q43.1125 90.2243 43.425 90.50555Q43.753124 90.7868 44.3625 90.7868Q44.971874 90.7868 45.440624 90.52117Q45.925 90.25555 46.14375 89.7868Q46.315624 89.42742 46.315624 88.73992L46.315624 88.3493ZM51.64375 90.5368L51.8 91.45867Q51.346874 91.55242 51.003124 91.55242Q50.425 91.55242 50.1125 91.38055Q49.8 91.19305 49.659374 90.89617Q49.534374 90.5993 49.534374 89.64617L49.534374 86.06805L48.76875 86.06805L48.76875 85.25555L49.534374 85.25555L49.534374 83.70867L50.58125 83.08367L50.58125 85.25555L51.64375 85.25555L51.64375 86.06805L50.58125 86.06805L50.58125 89.70867Q50.58125 90.1618 50.628124 90.2868Q50.690624 90.4118 50.815624 90.48992Q50.940624 90.56805 51.175 90.56805Q51.3625 90.56805 51.64375 90.5368ZM52.346874 84.0993L52.346874 82.88055L53.409374 82.88055L53.409374 84.0993L52.346874 84.0993ZM52.346874 91.4743L52.346874 85.25555L53.409374 85.25555L53.409374 91.4743L52.346874 91.4743ZM57.065624 91.4743L54.70625 85.25555L55.815624 85.25555L57.159374 88.9743Q57.3625 89.58367 57.55 90.2243Q57.690624 89.73992 57.940624 89.05242L59.33125 85.25555L60.409374 85.25555L58.05 91.4743L57.065624 91.4743ZM64.59688 89.4743L65.69063 89.5993Q65.44063 90.55242 64.7375 91.08367Q64.03438 91.61492 62.95625 91.61492Q61.596874 91.61492 60.784374 90.77117Q59.9875 89.92742 59.9875 88.4118Q59.9875 86.8493 60.8 85.98992Q61.6125 85.11492 62.89375 85.11492Q64.14375 85.11492 64.925 85.95867Q65.72188 86.80242 65.72188 88.3493Q65.72188 88.44305 65.72188 88.63055L61.08125 88.63055Q61.14375 89.6618 61.659374 90.20867Q62.175 90.73992 62.95625 90.73992Q63.534374 90.73992 63.940624 90.44305Q64.3625 90.13055 64.59688 89.4743ZM61.14375 87.77117L64.6125 87.77117Q64.55 86.9743 64.22188 86.58367Q63.70625 85.9743 62.909374 85.9743Q62.175 85.9743 61.675 86.45867Q61.190624 86.94305 61.14375 87.77117Z" fill-rule="nonzero"/><path fill="#9e9e9e" d="M24.596874 107.45867L24.596874 108.4743L18.909374 108.4743Q18.909374 108.0993 19.034374 107.73992Q19.253124 107.1618 19.721874 106.5993Q20.20625 106.0368 21.1125 105.30242Q22.51875 104.14617 23.003124 103.4743Q23.503124 102.80242 23.503124 102.20867Q23.503124 101.58367 23.05 101.1618Q22.596874 100.7243 21.878124 100.7243Q21.1125 100.7243 20.659374 101.17742Q20.20625 101.63055 20.190624 102.44305L19.1125 102.33367Q19.221874 101.11492 19.940624 100.48992Q20.675 99.8493 21.909374 99.8493Q23.14375 99.8493 23.8625 100.5368Q24.58125 101.2243 24.58125 102.23992Q24.58125 102.75555 24.3625 103.25555Q24.159374 103.73992 23.659374 104.30242Q23.175 104.8493 22.05 105.80242Q21.096874 106.5993 20.815624 106.89617Q20.55 107.17742 20.378124 107.45867L24.596874 107.45867ZM31.596874 107.45867L31.596874 108.4743L25.909374 108.4743Q25.909374 108.0993 26.034374 107.73992Q26.253124 107.1618 26.721874 106.5993Q27.20625 106.0368 28.1125 105.30242Q29.51875 104.14617 30.003124 103.4743Q30.503124 102.80242 30.503124 102.20867Q30.503124 101.58367 30.05 101.1618Q29.596874 100.7243 28.878124 100.7243Q28.1125 100.7243 27.659374 101.17742Q27.20625 101.63055 27.190624 102.44305L26.1125 102.33367Q26.221874 101.11492 26.940624 100.48992Q27.675 99.8493 28.909374 99.8493Q30.14375 99.8493 30.8625 100.5368Q31.58125 101.2243 31.58125 102.23992Q31.58125 102.75555 31.3625 103.25555Q31.159374 103.73992 30.659374 104.30242Q30.175 104.8493 29.05 105.80242Q28.096874 106.5993 27.815624 106.89617Q27.55 107.17742 27.378124 107.45867L31.596874 107.45867ZM33.64375 108.4743L33.64375 107.27117L34.846874 107.27117L34.846874 108.4743L33.64375 108.4743ZM39.425 108.4743L39.425 106.4118L35.70625 106.4118L35.70625 105.44305L39.628124 99.88055L40.4875 99.88055L40.4875 105.44305L41.64375 105.44305L41.64375 106.4118L40.4875 106.4118L40.4875 108.4743L39.425 108.4743ZM39.425 105.44305L39.425 101.58367L36.7375 105.44305L39.425 105.44305ZM43.253124 101.94305Q43.253124 101.02117 43.70625 100.38055Q44.175 99.73992 45.05 99.73992Q45.8625 99.73992 46.39375 100.31805Q46.925 100.89617 46.925 102.00555Q46.925 103.0993 46.378124 103.69305Q45.846874 104.27117 45.065624 104.27117Q44.284374 104.27117 43.76875 103.69305Q43.253124 103.11492 43.253124 101.94305ZM45.08125 100.45867Q44.690624 100.45867 44.425 100.80242Q44.175 101.14617 44.175 102.05242Q44.175 102.88055 44.425 103.2243Q44.690624 103.55242 45.08125 103.55242Q45.4875 103.55242 45.7375 103.20867Q46.003124 102.86492 46.003124 101.9743Q46.003124 101.13055 45.7375 100.80242Q45.471874 100.45867 45.08125 100.45867ZM45.08125 108.7868L49.784374 99.73992L50.64375 99.73992L45.95625 108.7868L45.08125 108.7868ZM48.8 106.45867Q48.8 105.5368 49.253124 104.89617Q49.721874 104.25555 50.6125 104.25555Q51.425 104.25555 51.95625 104.83367Q52.4875 105.39617 52.4875 106.52117Q52.4875 107.61492 51.940624 108.20867Q51.409374 108.7868 50.6125 108.7868Q49.846874 108.7868 49.315624 108.20867Q48.8 107.63055 48.8 106.45867ZM50.64375 104.9743Q50.2375 104.9743 49.971874 105.31805Q49.721874 105.6618 49.721874 106.56805Q49.721874 107.38055 49.9875 107.7243Q50.253124 108.06805 50.64375 108.06805Q51.034374 108.06805 51.3 107.7243Q51.565624 107.38055 51.565624 106.4743Q51.565624 105.64617 51.3 105.31805Q51.034374 104.9743 50.64375 104.9743Z" fill-rule="nonzero"/><path stroke="#757575" stroke-width="1.0" stroke-linecap="butt" d="M18.55 95.9743L145.23334 95.9743L208.49884 95.9743" fill-rule="nonzero"/><path fill="#9e9e9e" d="M210.49884 95.9743C210.49884 94.86973 209.60342 93.9743 208.49884 93.9743C207.39427 93.9743 206.49884 94.86973 206.49884 95.9743C206.49884 97.078865 207.39427 97.9743 208.49884 97.9743C209.60342 97.9743 210.49884 97.078865 210.49884 95.9743" fill-rule="nonzero"/><path fill="#1a1a1a" d="M19.471874 274.9304L19.471874 266.33664L20.628124 266.33664L25.14375 273.08664L25.14375 266.33664L26.2375 266.33664L26.2375 274.9304L25.065624 274.9304L20.55 268.1804L20.55 274.9304L19.471874 274.9304ZM32.596874 272.9304L33.690624 273.0554Q33.440624 274.0085 32.7375 274.53976Q32.034374 275.071 30.95625 275.071Q29.596874 275.071 28.784374 274.22726Q27.9875 273.3835 27.9875 271.8679Q27.9875 270.3054 28.8 269.446Q29.6125 268.571 30.89375 268.571Q32.14375 268.571 32.925 269.41476Q33.721874 270.2585 33.721874 271.8054Q33.721874 271.89914 33.721874 272.08664L29.08125 272.08664Q29.14375 273.1179 29.659374 273.66476Q30.175 274.196 30.95625 274.196Q31.534374 274.196 31.940624 273.89914Q32.3625 273.58664 32.596874 272.9304ZM29.14375 271.22726L32.6125 271.22726Q32.55 270.4304 32.221874 270.03976Q31.70625 269.4304 30.909374 269.4304Q30.175 269.4304 29.675 269.91476Q29.190624 270.39914 29.14375 271.22726ZM39.425 274.9304L39.425 274.0085Q38.690624 275.071 37.440624 275.071Q36.89375 275.071 36.409374 274.8679Q35.940624 274.64914 35.70625 274.33664Q35.471874 274.0085 35.378124 273.53976Q35.315624 273.2429 35.315624 272.5554L35.315624 268.71164L36.378124 268.71164L36.378124 272.16476Q36.378124 272.97726 36.440624 273.27414Q36.534374 273.6804 36.846874 273.9304Q37.175 274.16476 37.659374 274.16476Q38.128124 274.16476 38.534374 273.9304Q38.95625 273.6804 39.128124 273.2585Q39.315624 272.83664 39.315624 272.03976L39.315624 268.71164L40.3625 268.71164L40.3625 274.9304L39.425 274.9304ZM44.64375 273.9929L44.8 274.91476Q44.346874 275.0085 44.003124 275.0085Q43.425 275.0085 43.1125 274.83664Q42.8 274.64914 42.659374 274.35226Q42.534374 274.0554 42.534374 273.10226L42.534374 269.52414L41.76875 269.52414L41.76875 268.71164L42.534374 268.71164L42.534374 267.16476L43.58125 266.53976L43.58125 268.71164L44.64375 268.71164L44.64375 269.52414L43.58125 269.52414L43.58125 273.16476Q43.58125 273.6179 43.628124 273.7429Q43.690624 273.8679 43.815624 273.946Q43.940624 274.02414 44.175 274.02414Q44.3625 274.02414 44.64375 273.9929ZM45.33125 274.9304L45.33125 268.71164L46.284374 268.71164L46.284374 269.64914Q46.64375 268.9929 46.940624 268.78976Q47.253124 268.571 47.628124 268.571Q48.159374 268.571 48.70625 268.89914L48.346874 269.8835Q47.95625 269.64914 47.58125 269.64914Q47.221874 269.64914 46.940624 269.8679Q46.675 270.071 46.565624 270.446Q46.378124 271.0085 46.378124 271.66476L46.378124 274.9304L45.33125 274.9304ZM53.409374 274.16476Q52.815624 274.66476 52.26875 274.8679Q51.7375 275.071 51.1125 275.071Q50.08125 275.071 49.534374 274.571Q48.9875 274.071 48.9875 273.28976Q48.9875 272.83664 49.190624 272.46164Q49.39375 272.071 49.7375 271.85226Q50.08125 271.6179 50.503124 271.5085Q50.8 271.41476 51.440624 271.33664Q52.70625 271.196 53.315624 270.97726Q53.315624 270.7585 53.315624 270.71164Q53.315624 270.0554 53.01875 269.78976Q52.6125 269.446 51.815624 269.446Q51.08125 269.446 50.721874 269.71164Q50.3625 269.96164 50.190624 270.6179L49.159374 270.47726Q49.3 269.821 49.628124 269.41476Q49.95625 269.0085 50.565624 268.78976Q51.175 268.571 51.971874 268.571Q52.76875 268.571 53.26875 268.7585Q53.76875 268.946 54.003124 269.22726Q54.2375 269.5085 54.33125 269.946Q54.378124 270.21164 54.378124 270.91476L54.378124 272.321Q54.378124 273.78976 54.440624 274.1804Q54.51875 274.571 54.721874 274.9304L53.6125 274.9304Q53.45625 274.60226 53.409374 274.16476ZM53.315624 271.8054Q52.7375 272.03976 51.596874 272.21164Q50.940624 272.3054 50.675 272.4304Q50.409374 272.53976 50.253124 272.7585Q50.1125 272.97726 50.1125 273.2585Q50.1125 273.6804 50.425 273.96164Q50.753124 274.2429 51.3625 274.2429Q51.971874 274.2429 52.440624 273.97726Q52.925 273.71164 53.14375 273.2429Q53.315624 272.8835 53.315624 272.196L53.315624 271.8054ZM56.315624 274.9304L56.315624 266.33664L57.378124 266.33664L57.378124 274.9304L56.315624 274.9304Z" fill-rule="nonzero"/><path fill="#9e9e9e" d="M24.596874 290.91476L24.596874 291.9304L18.909374 291.9304Q18.909374 291.5554 19.034374 291.196Q19.253124 290.6179 19.721874 290.0554Q20.20625 289.4929 21.1125 288.7585Q22.51875 287.60226 23.003124 286.9304Q23.503124 286.2585 23.503124 285.66476Q23.503124 285.03976 23.05 284.6179Q22.596874 284.1804 21.878124 284.1804Q21.1125 284.1804 20.659374 284.6335Q20.20625 285.08664 20.190624 285.89914L19.1125 285.78976Q19.221874 284.571 19.940624 283.946Q20.675 283.3054 21.909374 283.3054Q23.14375 283.3054 23.8625 283.9929Q24.58125 284.6804 24.58125 285.696Q24.58125 286.21164 24.3625 286.71164Q24.159374 287.196 23.659374 287.7585Q23.175 288.3054 22.05 289.2585Q21.096874 290.0554 20.815624 290.35226Q20.55 290.6335 20.378124 290.91476L24.596874 290.91476ZM26.05 289.66476L27.1125 289.52414Q27.284374 290.41476 27.721874 290.821Q28.159374 291.21164 28.784374 291.21164Q29.534374 291.21164 30.05 290.696Q30.565624 290.1804 30.565624 289.41476Q30.565624 288.696 30.08125 288.22726Q29.6125 287.7429 28.878124 287.7429Q28.58125 287.7429 28.128124 287.8679L28.253124 286.9304Q28.3625 286.946 28.425 286.946Q29.096874 286.946 29.628124 286.60226Q30.175 286.2429 30.175 285.5085Q30.175 284.9304 29.784374 284.5554Q29.39375 284.16476 28.76875 284.16476Q28.159374 284.16476 27.7375 284.5554Q27.33125 284.946 27.221874 285.71164L26.159374 285.52414Q26.346874 284.47726 27.034374 283.89914Q27.721874 283.3054 28.7375 283.3054Q29.440624 283.3054 30.034374 283.6179Q30.628124 283.91476 30.940624 284.4304Q31.253124 284.946 31.253124 285.53976Q31.253124 286.08664 30.95625 286.5554Q30.659374 287.0085 30.08125 287.27414Q30.83125 287.446 31.253124 288.0085Q31.675 288.5554 31.675 289.39914Q31.675 290.52414 30.846874 291.3054Q30.034374 292.08664 28.784374 292.08664Q27.659374 292.08664 26.909374 291.41476Q26.159374 290.72726 26.05 289.66476ZM33.64375 291.9304L33.64375 290.72726L34.846874 290.72726L34.846874 291.9304L33.64375 291.9304ZM41.596874 290.91476L41.596874 291.9304L35.909374 291.9304Q35.909374 291.5554 36.034374 291.196Q36.253124 290.6179 36.721874 290.0554Q37.20625 289.4929 38.1125 288.7585Q39.51875 287.60226 40.003124 286.9304Q40.503124 286.2585 40.503124 285.66476Q40.503124 285.03976 40.05 284.6179Q39.596874 284.1804 38.878124 284.1804Q38.1125 284.1804 37.659374 284.6335Q37.20625 285.08664 37.190624 285.89914L36.1125 285.78976Q36.221874 284.571 36.940624 283.946Q37.675 283.3054 38.909374 283.3054Q40.14375 283.3054 40.8625 283.9929Q41.58125 284.6804 41.58125 285.696Q41.58125 286.21164 41.3625 286.71164Q41.159374 287.196 40.659374 287.7585Q40.175 288.3054 39.05 289.2585Q38.096874 290.0554 37.815624 290.35226Q37.55 290.6335 37.378124 290.91476L41.596874 290.91476ZM43.253124 285.39914Q43.253124 284.47726 43.70625 283.83664Q44.175 283.196 45.05 283.196Q45.8625 283.196 46.39375 283.77414Q46.925 284.35226 46.925 285.46164Q46.925 286.5554 46.378124 287.14914Q45.846874 287.72726 45.065624 287.72726Q44.284374 287.72726 43.76875 287.14914Q43.253124 286.571 43.253124 285.39914ZM45.08125 283.91476Q44.690624 283.91476 44.425 284.2585Q44.175 284.60226 44.175 285.5085Q44.175 286.33664 44.425 286.6804Q44.690624 287.0085 45.08125 287.0085Q45.4875 287.0085 45.7375 286.66476Q46.003124 286.321 46.003124 285.4304Q46.003124 284.58664 45.7375 284.2585Q45.471874 283.91476 45.08125 283.91476ZM45.08125 292.2429L49.784374 283.196L50.64375 283.196L45.95625 292.2429L45.08125 292.2429ZM48.8 289.91476Q48.8 288.9929 49.253124 288.35226Q49.721874 287.71164 50.6125 287.71164Q51.425 287.71164 51.95625 288.28976Q52.4875 288.85226 52.4875 289.97726Q52.4875 291.071 51.940624 291.66476Q51.409374 292.2429 50.6125 292.2429Q49.846874 292.2429 49.315624 291.66476Q48.8 291.08664 48.8 289.91476ZM50.64375 288.4304Q50.2375 288.4304 49.971874 288.77414Q49.721874 289.1179 49.721874 290.02414Q49.721874 290.83664 49.9875 291.1804Q50.253124 291.52414 50.64375 291.52414Q51.034374 291.52414 51.3 291.1804Q51.565624 290.83664 51.565624 289.9304Q51.565624 289.10226 51.3 288.77414Q51.034374 288.4304 50.64375 288.4304Z" fill-rule="nonzero"/><path stroke="#757575" stroke-width="1.0" stroke-linecap="butt" d="M18.55 279.4304L145.23334 279.4304L180.68495 279.4304" fill-rule="nonzero"/><path fill="#9e9e9e" d="M182.68495 279.4304C182.68495 278.3258 181.78952 277.4304 180.68495 277.4304C179.58037 277.4304 178.68495 278.3258 178.68495 279.4304C178.68495 280.53494 179.58037 281.4304 180.68495 281.4304C181.78952 281.4304 182.68495 280.53494 182.68495 279.4304" fill-rule="nonzero"/><path fill="#1a1a1a" d="M539.3719 218.704L539.3719 210.11024L542.6219 210.11024Q543.46564 210.11024 543.91876 210.18837Q544.5594 210.29774 544.98126 210.59462Q545.41876 210.8915 545.66876 211.42274Q545.9344 211.954 545.9344 212.59462Q545.9344 213.68837 545.23126 214.454Q544.54376 215.204 542.71564 215.204L540.5125 215.204L540.5125 218.704L539.3719 218.704ZM540.5125 214.204L542.73126 214.204Q543.84064 214.204 544.29376 213.79774Q544.7625 213.37587 544.7625 212.62587Q544.7625 212.09462 544.48126 211.71962Q544.21564 211.329 543.77814 211.204Q543.48126 211.12587 542.71564 211.12587L540.5125 211.12587L540.5125 214.204ZM546.85626 215.59462Q546.85626 213.86024 547.8094 213.03212Q548.60626 212.34462 549.7625 212.34462Q551.04376 212.34462 551.85626 213.18837Q552.6844 214.0165 552.6844 215.50087Q552.6844 216.704 552.325 217.3915Q551.96564 218.079 551.2625 218.46962Q550.575 218.84462 549.7625 218.84462Q548.46564 218.84462 547.65314 218.0165Q546.85626 217.17274 546.85626 215.59462ZM547.9344 215.59462Q547.9344 216.78212 548.45 217.37587Q548.98126 217.96962 549.7625 217.96962Q550.5594 217.96962 551.075 217.37587Q551.59064 216.78212 551.59064 215.56337Q551.59064 214.40712 551.0594 213.81337Q550.54376 213.21962 549.7625 213.21962Q548.98126 213.21962 548.45 213.81337Q547.9344 214.3915 547.9344 215.59462ZM553.825 216.84462L554.85626 216.68837Q554.95 217.31337 555.34064 217.6415Q555.7469 217.96962 556.48126 217.96962Q557.2 217.96962 557.54376 217.68837Q557.90314 217.3915 557.90314 216.98524Q557.90314 216.62587 557.59064 216.42274Q557.3719 216.28212 556.5125 216.06337Q555.35626 215.7665 554.90314 215.56337Q554.46564 215.34462 554.23126 214.96962Q553.9969 214.59462 553.9969 214.12587Q553.9969 213.71962 554.1844 213.36024Q554.3719 213.00087 554.7 212.7665Q554.95 212.59462 555.3719 212.46962Q555.79376 212.34462 556.29376 212.34462Q557.0125 212.34462 557.5594 212.56337Q558.1219 212.7665 558.3875 213.12587Q558.65314 213.48524 558.7469 214.079L557.71564 214.21962Q557.65314 213.75087 557.3094 213.48524Q556.98126 213.204 556.35626 213.204Q555.6375 213.204 555.325 213.454Q555.0125 213.68837 555.0125 214.0165Q555.0125 214.21962 555.1375 214.37587Q555.27814 214.54774 555.54376 214.65712Q555.7 214.71962 556.48126 214.92274Q557.60626 215.23524 558.04376 215.42274Q558.48126 215.61024 558.73126 215.96962Q558.98126 216.329 558.98126 216.87587Q558.98126 217.40712 558.66876 217.87587Q558.3719 218.329 557.79376 218.59462Q557.21564 218.84462 556.48126 218.84462Q555.2625 218.84462 554.6219 218.34462Q553.9969 217.829 553.825 216.84462ZM561.2469 211.329L561.2469 210.11024L562.3094 210.11024L562.3094 211.329L561.2469 211.329ZM561.2469 218.704L561.2469 212.48524L562.3094 212.48524L562.3094 218.704L561.2469 218.704ZM566.54376 217.7665L566.7 218.68837Q566.2469 218.78212 565.90314 218.78212Q565.325 218.78212 565.0125 218.61024Q564.7 218.42274 564.5594 218.12587Q564.4344 217.829 564.4344 216.87587L564.4344 213.29774L563.66876 213.29774L563.66876 212.48524L564.4344 212.48524L564.4344 210.93837L565.48126 210.31337L565.48126 212.48524L566.54376 212.48524L566.54376 213.29774L565.48126 213.29774L565.48126 216.93837Q565.48126 217.3915 565.52814 217.5165Q565.59064 217.6415 565.71564 217.71962Q565.84064 217.79774 566.075 217.79774Q566.2625 217.79774 566.54376 217.7665ZM567.2469 211.329L567.2469 210.11024L568.3094 210.11024L568.3094 211.329L567.2469 211.329ZM567.2469 218.704L567.2469 212.48524L568.3094 212.48524L568.3094 218.704L567.2469 218.704ZM571.96564 218.704L569.60626 212.48524L570.71564 212.48524L572.0594 216.204Q572.2625 216.81337 572.45 217.454Q572.59064 216.96962 572.84064 216.28212L574.23126 212.48524L575.3094 212.48524L572.95 218.704L571.96564 218.704ZM579.4969 216.704L580.59064 216.829Q580.34064 217.78212 579.6375 218.31337Q578.9344 218.84462 577.85626 218.84462Q576.4969 218.84462 575.6844 218.00087Q574.8875 217.15712 574.8875 215.6415Q574.8875 214.079 575.7 213.21962Q576.5125 212.34462 577.79376 212.34462Q579.04376 212.34462 579.825 213.18837Q580.6219 214.03212 580.6219 215.579Q580.6219 215.67274 580.6219 215.86024L575.98126 215.86024Q576.04376 216.8915 576.5594 217.43837Q577.075 217.96962 577.85626 217.96962Q578.4344 217.96962 578.84064 217.67274Q579.2625 217.36024 579.4969 216.704ZM576.04376 215.00087L579.5125 215.00087Q579.45 214.204 579.1219 213.81337Q578.60626 213.204 577.8094 213.204Q577.075 213.204 576.575 213.68837Q576.09064 214.17274 576.04376 215.00087Z" fill-rule="nonzero"/><path fill="#9e9e9e" d="M546.95 233.454L548.0594 233.36024Q548.1844 234.17274 548.6219 234.579Q549.075 234.98524 549.71564 234.98524Q550.46564 234.98524 550.9969 234.40712Q551.52814 233.829 551.52814 232.8915Q551.52814 231.98524 551.0125 231.46962Q550.5125 230.93837 549.6844 230.93837Q549.1844 230.93837 548.7625 231.17274Q548.35626 231.40712 548.1219 231.7665L547.1375 231.6415L547.96564 227.23524L552.2469 227.23524L552.2469 228.23524L548.8094 228.23524L548.35626 230.54774Q549.1219 230.00087 549.96564 230.00087Q551.09064 230.00087 551.85626 230.78212Q552.6375 231.56337 552.6375 232.79774Q552.6375 233.954 551.96564 234.81337Q551.1375 235.84462 549.71564 235.84462Q548.54376 235.84462 547.79376 235.18837Q547.0594 234.53212 546.95 233.454ZM557.325 235.704L557.325 233.6415L553.60626 233.6415L553.60626 232.67274L557.52814 227.11024L558.3875 227.11024L558.3875 232.67274L559.54376 232.67274L559.54376 233.6415L558.3875 233.6415L558.3875 235.704L557.325 235.704ZM557.325 232.67274L557.325 228.81337L554.6375 232.67274L557.325 232.67274ZM561.54376 235.704L561.54376 234.50087L562.7469 234.50087L562.7469 235.704L561.54376 235.704ZM567.325 235.704L567.325 233.6415L563.60626 233.6415L563.60626 232.67274L567.52814 227.11024L568.3875 227.11024L568.3875 232.67274L569.54376 232.67274L569.54376 233.6415L568.3875 233.6415L568.3875 235.704L567.325 235.704ZM567.325 232.67274L567.325 228.81337L564.6375 232.67274L567.325 232.67274ZM571.15314 229.17274Q571.15314 228.25087 571.60626 227.61024Q572.075 226.96962 572.95 226.96962Q573.7625 226.96962 574.29376 227.54774Q574.825 228.12587 574.825 229.23524Q574.825 230.329 574.27814 230.92274Q573.7469 231.50087 572.96564 231.50087Q572.1844 231.50087 571.66876 230.92274Q571.15314 230.34462 571.15314 229.17274ZM572.98126 227.68837Q572.59064 227.68837 572.325 228.03212Q572.075 228.37587 572.075 229.28212Q572.075 230.11024 572.325 230.454Q572.59064 230.78212 572.98126 230.78212Q573.3875 230.78212 573.6375 230.43837Q573.90314 230.09462 573.90314 229.204Q573.90314 228.36024 573.6375 228.03212Q573.3719 227.68837 572.98126 227.68837ZM572.98126 236.0165L577.6844 226.96962L578.54376 226.96962L573.85626 236.0165L572.98126 236.0165ZM576.7 233.68837Q576.7 232.7665 577.15314 232.12587Q577.6219 231.48524 578.5125 231.48524Q579.325 231.48524 579.85626 232.06337Q580.3875 232.62587 580.3875 233.75087Q580.3875 234.84462 579.84064 235.43837Q579.3094 236.0165 578.5125 236.0165Q577.7469 236.0165 577.21564 235.43837Q576.7 234.86024 576.7 233.68837ZM578.54376 232.204Q578.1375 232.204 577.8719 232.54774Q577.6219 232.8915 577.6219 233.79774Q577.6219 234.61024 577.8875 234.954Q578.15314 235.29774 578.54376 235.29774Q578.9344 235.29774 579.2 234.954Q579.46564 234.61024 579.46564 233.704Q579.46564 232.87587 579.2 232.54774Q578.9344 232.204 578.54376 232.204Z" fill-rule="nonzero"/><path stroke="#757575" stroke-width="1.0" stroke-linecap="butt" d="M581.45 223.204L454.76666 223.204L439.97372 223.204" fill-rule="nonzero"/><path fill="#9e9e9e" d="M441.97372 223.204C441.97372 222.09943 441.07828 221.204 439.97372 221.204C438.86914 221.204 437.97372 222.09943 437.97372 223.204C437.97372 224.30856 438.86914 225.204 439.97372 225.204C441.07828 225.204 441.97372 224.30856 441.97372 223.204" fill-rule="nonzero"/><path fill="#757575" d="M20.034374 37.55L20.034374 23.2375L22.846874 23.2375L28.70625 32.8L28.70625 23.2375L31.39375 23.2375L31.39375 37.55L28.4875 37.55L22.721874 28.20625L22.721874 37.55L20.034374 37.55ZM40.815624 37.55L40.815624 36.003124Q40.253124 36.83125 39.315624 37.315624Q38.39375 37.784374 37.378124 37.784374Q36.33125 37.784374 35.503124 37.33125Q34.675 36.8625 34.3 36.034374Q33.925 35.20625 33.925 33.7375L33.925 27.175L36.675 27.175L36.675 31.940624Q36.675 34.128124 36.815624 34.628124Q36.971874 35.1125 37.3625 35.409374Q37.76875 35.690624 38.39375 35.690624Q39.096874 35.690624 39.64375 35.315624Q40.20625 34.925 40.409374 34.3625Q40.6125 33.784374 40.6125 31.55L40.6125 27.175L43.3625 27.175L43.3625 37.55L40.815624 37.55ZM45.784374 27.175L48.315624 27.175L48.315624 28.596874Q49.675 26.940624 51.55 26.940624Q52.534374 26.940624 53.26875 27.3625Q54.003124 27.76875 54.471874 28.596874Q55.159374 27.76875 55.940624 27.3625Q56.7375 26.940624 57.64375 26.940624Q58.784374 26.940624 59.565624 27.409374Q60.3625 27.878124 60.753124 28.76875Q61.034374 29.440624 61.034374 30.925L61.034374 37.55L58.284374 37.55L58.284374 31.628124Q58.284374 30.08125 58.003124 29.628124Q57.628124 29.05 56.83125 29.05Q56.253124 29.05 55.7375 29.409374Q55.2375 29.753124 55.01875 30.425Q54.8 31.096874 54.8 32.565624L54.8 37.55L52.05 37.55L52.05 31.8625Q52.05 30.346874 51.89375 29.909374Q51.753124 29.471874 51.440624 29.26875Q51.14375 29.05 50.6125 29.05Q49.9875 29.05 49.471874 29.39375Q48.971874 29.721874 48.7375 30.378124Q48.51875 31.01875 48.51875 32.503124L48.51875 37.55L45.784374 37.55L45.784374 27.175ZM62.8625 37.55L62.8625 23.2375L65.6125 23.2375L65.6125 28.39375Q66.87813 26.940624 68.62813 26.940624Q70.51875 26.940624 71.75313 28.315624Q73.00313 29.690624 73.00313 32.253124Q73.00313 34.909374 71.7375 36.346874Q70.47188 37.784374 68.65938 37.784374Q67.76875 37.784374 66.90938 37.346874Q66.05 36.89375 65.425 36.01875L65.425 37.55L62.8625 37.55ZM65.59688 32.14375Q65.59688 33.753124 66.09688 34.51875Q66.81563 35.6125 68.00313 35.6125Q68.90938 35.6125 69.55 34.846874Q70.19063 34.065624 70.19063 32.39375Q70.19063 30.6125 69.53438 29.83125Q68.89375 29.05 67.89375 29.05Q66.90938 29.05 66.25313 29.815624Q65.59688 30.58125 65.59688 32.14375ZM80.9875 34.253124L83.72188 34.70625Q83.20625 36.20625 82.06563 37.003124Q80.925 37.784374 79.22188 37.784374Q76.50313 37.784374 75.20625 36.01875Q74.19063 34.596874 74.19063 32.440624Q74.19063 29.8625 75.53438 28.409374Q76.87813 26.940624 78.94063 26.940624Q81.25313 26.940624 82.58125 28.471874Q83.925 30.003124 83.87813 33.159374L77.00313 33.159374Q77.03438 34.378124 77.65938 35.065624Q78.3 35.7375 79.2375 35.7375Q79.89375 35.7375 80.33125 35.39375Q80.76875 35.034374 80.9875 34.253124ZM81.14375 31.471874Q81.1125 30.284374 80.51875 29.675Q79.94063 29.05 79.1125 29.05Q78.20625 29.05 77.62813 29.690624Q77.03438 30.346874 77.05 31.471874L81.14375 31.471874ZM88.6125 37.55L85.8625 37.55L85.8625 27.175L88.425 27.175L88.425 28.659374Q89.06563 27.6125 89.58125 27.284374Q90.1125 26.940624 90.78438 26.940624Q91.72188 26.940624 92.58125 27.45625L91.7375 29.846874Q91.05 29.409374 90.45625 29.409374Q89.87813 29.409374 89.47188 29.721874Q89.06563 30.034374 88.83125 30.878124Q88.6125 31.70625 88.6125 34.346874L88.6125 37.55ZM99.34688 32.221874Q99.34688 30.846874 100.01875 29.565624Q100.70625 28.284374 101.94063 27.6125Q103.175 26.940624 104.69063 26.940624Q107.05 26.940624 108.55 28.471874Q110.05 30.003124 110.05 32.33125Q110.05 34.690624 108.53438 36.2375Q107.01875 37.784374 104.70625 37.784374Q103.28438 37.784374 101.9875 37.14375Q100.70625 36.4875 100.01875 35.253124Q99.34688 34.003124 99.34688 32.221874ZM102.15938 32.3625Q102.15938 33.909374 102.89375 34.7375Q103.62813 35.55 104.70625 35.55Q105.78438 35.55 106.50313 34.7375Q107.2375 33.909374 107.2375 32.346874Q107.2375 30.815624 106.50313 30.003124Q105.78438 29.175 104.70625 29.175Q103.62813 29.175 102.89375 30.003124Q102.15938 30.815624 102.15938 32.3625ZM110.78438 27.175L112.31563 27.175L112.31563 26.39375Q112.31563 25.08125 112.58125 24.440624Q112.8625 23.8 113.6125 23.39375Q114.3625 22.9875 115.50313 22.9875Q116.675 22.9875 117.8 23.346874L117.425 25.253124Q116.76875 25.096874 116.15938 25.096874Q115.56563 25.096874 115.3 25.378124Q115.05 25.659374 115.05 26.440624L115.05 27.175L117.09688 27.175L117.09688 29.33125L115.05 29.33125L115.05 37.55L112.31563 37.55L112.31563 29.33125L110.78438 29.33125L110.78438 27.175ZM128.22188 37.55L128.22188 25.659374L123.9875 25.659374L123.9875 23.2375L135.3625 23.2375L135.3625 25.659374L131.1125 25.659374L131.1125 37.55L128.22188 37.55ZM137.34688 32.221874Q137.34688 30.846874 138.01875 29.565624Q138.70625 28.284374 139.94063 27.6125Q141.175 26.940624 142.69063 26.940624Q145.05 26.940624 146.55 28.471874Q148.05 30.003124 148.05 32.33125Q148.05 34.690624 146.53438 36.2375Q145.01875 37.784374 142.70625 37.784374Q141.28438 37.784374 139.9875 37.14375Q138.70625 36.4875 138.01875 35.253124Q137.34688 34.003124 137.34688 32.221874ZM140.15938 32.3625Q140.15938 33.909374 140.89375 34.7375Q141.62813 35.55 142.70625 35.55Q143.78438 35.55 144.50313 34.7375Q145.2375 33.909374 145.2375 32.346874Q145.2375 30.815624 144.50313 30.003124Q143.78438 29.175 142.70625 29.175Q141.62813 29.175 140.89375 30.003124Q140.15938 30.815624 140.15938 32.3625ZM154.7375 27.175L154.7375 29.3625L152.8625 29.3625L152.8625 33.55Q152.8625 34.815624 152.90938 35.034374Q152.97188 35.2375 153.15938 35.378124Q153.3625 35.503124 153.62813 35.503124Q154.00313 35.503124 154.7375 35.2375L154.97188 37.378124Q154.00313 37.784374 152.8 37.784374Q152.05 37.784374 151.45625 37.534374Q150.8625 37.284374 150.58125 36.89375Q150.31563 36.4875 150.20625 35.815624Q150.1125 35.346874 150.1125 33.89375L150.1125 29.3625L148.84688 29.3625L148.84688 27.175L150.1125 27.175L150.1125 25.1125L152.8625 23.51875L152.8625 27.175L154.7375 27.175ZM159.03438 30.346874L156.55 29.89375Q156.97188 28.39375 157.9875 27.675Q159.01875 26.940624 161.03438 26.940624Q162.87813 26.940624 163.76875 27.378124Q164.675 27.815624 165.03438 28.4875Q165.40938 29.14375 165.40938 30.940624L165.37813 34.14375Q165.37813 35.503124 165.50313 36.159374Q165.64375 36.8 166.00313 37.55L163.28438 37.55Q163.175 37.26875 163.01875 36.7375Q162.95625 36.4875 162.925 36.409374Q162.22188 37.096874 161.40938 37.440624Q160.6125 37.784374 159.70625 37.784374Q158.1125 37.784374 157.19063 36.925Q156.26875 36.05 156.26875 34.721874Q156.26875 33.83125 156.675 33.14375Q157.09688 32.45625 157.84688 32.096874Q158.6125 31.721874 160.05 31.45625Q161.97188 31.096874 162.70625 30.784374L162.70625 30.503124Q162.70625 29.721874 162.31563 29.39375Q161.925 29.05 160.84688 29.05Q160.1125 29.05 159.69063 29.33125Q159.28438 29.6125 159.03438 30.346874ZM162.70625 32.565624Q162.175 32.7375 161.03438 32.9875Q159.89375 33.2375 159.55 33.471874Q159.00313 33.846874 159.00313 34.440624Q159.00313 35.003124 159.425 35.425Q159.8625 35.846874 160.53438 35.846874Q161.26875 35.846874 161.94063 35.3625Q162.44063 34.9875 162.59688 34.45625Q162.70625 34.096874 162.70625 33.1125L162.70625 32.565624ZM167.9875 37.55L167.9875 23.2375L170.7375 23.2375L170.7375 37.55L167.9875 37.55ZM179.01875 37.55L179.01875 23.2375L185.09688 23.2375Q187.39375 23.2375 188.425 23.628124Q189.47188 24.003124 190.09688 24.9875Q190.72188 25.971874 190.72188 27.253124Q190.72188 28.8625 189.76875 29.909374Q188.83125 30.95625 186.94063 31.2375Q187.87813 31.784374 188.4875 32.440624Q189.09688 33.08125 190.14375 34.753124L191.89375 37.55L188.425 37.55L186.34688 34.440624Q185.22188 32.76875 184.81563 32.33125Q184.40938 31.89375 183.94063 31.7375Q183.4875 31.565624 182.4875 31.565624L181.90938 31.565624L181.90938 37.55L179.01875 37.55ZM181.90938 29.284374L184.05 29.284374Q186.12813 29.284374 186.64375 29.1125Q187.15938 28.940624 187.45625 28.51875Q187.75313 28.08125 187.75313 27.425Q187.75313 26.70625 187.3625 26.26875Q186.97188 25.815624 186.26875 25.70625Q185.925 25.659374 184.15938 25.659374L181.90938 25.659374L181.90938 29.284374ZM198.9875 34.253124L201.72188 34.70625Q201.20625 36.20625 200.06563 37.003124Q198.925 37.784374 197.22188 37.784374Q194.50313 37.784374 193.20625 36.01875Q192.19063 34.596874 192.19063 32.440624Q192.19063 29.8625 193.53438 28.409374Q194.87813 26.940624 196.94063 26.940624Q199.25313 26.940624 200.58125 28.471874Q201.925 30.003124 201.87813 33.159374L195.00313 33.159374Q195.03438 34.378124 195.65938 35.065624Q196.3 35.7375 197.2375 35.7375Q197.89375 35.7375 198.33125 35.39375Q198.76875 35.034374 198.9875 34.253124ZM199.14375 31.471874Q199.1125 30.284374 198.51875 29.675Q197.94063 29.05 197.1125 29.05Q196.20625 29.05 195.62813 29.690624Q195.03438 30.346874 195.05 31.471874L199.14375 31.471874ZM206.83125 37.55L202.65938 27.175L205.53438 27.175L207.4875 32.471874L208.06563 34.2375Q208.28438 33.565624 208.34688 33.346874Q208.47188 32.909374 208.62813 32.471874L210.6125 27.175L213.425 27.175L209.31563 37.55L206.83125 37.55ZM214.9875 25.76875L214.9875 23.2375L217.7375 23.2375L217.7375 25.76875L214.9875 25.76875ZM214.9875 37.55L214.9875 27.175L217.7375 27.175L217.7375 37.55L214.9875 37.55ZM225.9875 34.253124L228.72188 34.70625Q228.20625 36.20625 227.06563 37.003124Q225.925 37.784374 224.22188 37.784374Q221.50313 37.784374 220.20625 36.01875Q219.19063 34.596874 219.19063 32.440624Q219.19063 29.8625 220.53438 28.409374Q221.87813 26.940624 223.94063 26.940624Q226.25313 26.940624 227.58125 28.471874Q228.925 30.003124 228.87813 33.159374L222.00313 33.159374Q222.03438 34.378124 222.65938 35.065624Q223.3 35.7375 224.2375 35.7375Q224.89375 35.7375 225.33125 35.39375Q225.76875 35.034374 225.9875 34.253124ZM226.14375 31.471874Q226.1125 30.284374 225.51875 29.675Q224.94063 29.05 224.1125 29.05Q223.20625 29.05 222.62813 29.690624Q222.03438 30.346874 222.05 31.471874L226.14375 31.471874ZM232.925 37.55L229.64375 27.175L232.3 27.175L234.25313 33.971874L236.03438 27.175L238.675 27.175L240.40938 33.971874L242.39375 27.175L245.09688 27.175L241.76875 37.55L239.12813 37.55L237.34688 30.878124L235.58125 37.55L232.925 37.55ZM245.01875 34.596874L247.76875 34.175Q247.95625 34.971874 248.4875 35.39375Q249.01875 35.8 249.9875 35.8Q251.05 35.8 251.59688 35.409374Q251.95625 35.14375 251.95625 34.675Q251.95625 34.3625 251.75313 34.159374Q251.55 33.971874 250.84688 33.8Q247.51875 33.065624 246.62813 32.45625Q245.39375 31.628124 245.39375 30.128124Q245.39375 28.784374 246.45625 27.8625Q247.53438 26.940624 249.76875 26.940624Q251.89375 26.940624 252.925 27.64375Q253.97188 28.33125 254.3625 29.690624L251.76875 30.159374Q251.59688 29.565624 251.12813 29.2375Q250.675 28.909374 249.81563 28.909374Q248.7375 28.909374 248.26875 29.221874Q247.95625 29.440624 247.95625 29.76875Q247.95625 30.065624 248.22188 30.26875Q248.59688 30.55 250.78438 31.05Q252.97188 31.55 253.84688 32.26875Q254.70625 33.003124 254.70625 34.3Q254.70625 35.7375 253.51875 36.76875Q252.33125 37.784374 249.9875 37.784374Q247.87813 37.784374 246.62813 36.925Q245.39375 36.065624 245.01875 34.596874Z" fill-rule="nonzero"/></svg>